<?xml version="1.0" standalone="no"?><!DOCTYPE svg PUBLIC "-//W3C//DTD SVG 1.1//EN" "http://www.w3.org/Graphics/SVG/1.1/DTD/svg11.dtd"><svg height="350" node-id="1" sillyvg="true" template-height="350" template-width="470" version="1.1" viewBox="0 0 470 350" width="470" xmlns="http://www.w3.org/2000/svg" xmlns:xlink="http://www.w3.org/1999/xlink"><defs node-id="77"><linearGradient gradientUnits="userSpaceOnUse" id="SVGID_1_" node-id="5" spreadMethod="pad" x1="245.8822" x2="245.8822" y1="-215.4097" y2="-56.7709"><stop offset="0" stop-color="#ffe98a"></stop><stop offset="1" stop-color="#ffd31a"></stop></linearGradient><linearGradient gradientUnits="userSpaceOnUse" id="SVGID_2_" node-id="9" spreadMethod="pad" x1="224.1178" x2="224.1178" y1="-233.4259" y2="-74.787"><stop offset="0" stop-color="#ffe98a"></stop><stop offset="1" stop-color="#ffd31a"></stop></linearGradient><linearGradient gradientUnits="userSpaceOnUse" id="SVGID_3_" node-id="18" spreadMethod="pad" x1="237.04" x2="237.04" y1="191.1265" y2="303.9011"><stop offset="0" stop-color="#f5c400"></stop><stop offset="1" stop-color="#ffa800"></stop></linearGradient><linearGradient gradientUnits="userSpaceOnUse" id="SVGID_4_" node-id="22" spreadMethod="pad" x1="116.6184" x2="191.3801" y1="129.3403" y2="129.3403"><stop offset="0" stop-color="#ffa800"></stop><stop offset="1" stop-color="#f5c400"></stop></linearGradient><linearGradient gradientUnits="userSpaceOnUse" id="SVGID_5_" node-id="26" spreadMethod="pad" x1="128.4215" x2="179.4335" y1="129.1628" y2="129.1628"><stop offset="0" stop-color="#ffe98a"></stop><stop offset="1" stop-color="#ffd31a"></stop></linearGradient><linearGradient gradientUnits="userSpaceOnUse" id="SVGID_6_" node-id="30" spreadMethod="pad" x1="278.6199" x2="353.3816" y1="129.3403" y2="129.3403"><stop offset="0" stop-color="#f5c400"></stop><stop offset="1" stop-color="#ffa800"></stop></linearGradient><linearGradient gradientUnits="userSpaceOnUse" id="SVGID_7_" node-id="34" spreadMethod="pad" x1="290.5665" x2="341.5785" y1="129.1628" y2="129.1628"><stop offset="0" stop-color="#ffd31a"></stop><stop offset="1" stop-color="#ffe98a"></stop></linearGradient><linearGradient gradientUnits="userSpaceOnUse" id="SVGID_8_" node-id="38" spreadMethod="pad" x1="236.4479" x2="236.4479" y1="70.8961" y2="204.2418"><stop offset="0" stop-color="#f5c400"></stop><stop offset="1" stop-color="#ffa800"></stop></linearGradient><linearGradient gradientUnits="userSpaceOnUse" id="SVGID_9_" node-id="42" spreadMethod="pad" x1="201.7538" x2="201.7538" y1="61.2064" y2="89.3027"><stop offset="0" stop-color="#f5c400"></stop><stop offset="1" stop-color="#ffa800"></stop></linearGradient><linearGradient gradientUnits="userSpaceOnUse" id="SVGID_10_" node-id="46" spreadMethod="pad" x1="259.7292" x2="259.7292" y1="61.2064" y2="89.3027"><stop offset="0" stop-color="#f5c400"></stop><stop offset="1" stop-color="#ffa800"></stop></linearGradient><linearGradient gradientUnits="userSpaceOnUse" id="SVGID_11_" node-id="50" spreadMethod="pad" x1="230.1222" x2="230.1222" y1="33.9011" y2="77.678"><stop offset="0" stop-color="#f5c400"></stop><stop offset="1" stop-color="#ffa800"></stop></linearGradient><radialGradient cx="592.5995" cy="130.3685" fx="592.5995" fy="130.3685" gradientTransform="matrix(1.4719 0 0 1.1722 -637.2305 -6.1871)" gradientUnits="userSpaceOnUse" id="SVGID_12_" node-id="58" r="6.976" rev="1" spreadMethod="pad"><stop offset="0" stop-color="#785b51"></stop><stop offset="0.5335" stop-color="#775a50"></stop><stop offset="1" stop-color="#372520"></stop></radialGradient></defs><g node-id="232"><g node-id="234"><path d="M 180.30 251.10 L 163.30 251.10 L 163.30 289.30 L 129.20 289.30 L 129.20 251.10 L 65.10 251.10 L 65.10 225.80 L 118.30 136.40 L 163.30 136.40 L 163.30 223.30 L 180.30 223.30 L 180.30 251.10 L 180.30 251.10 Z M 129.20 223.30 L 129.20 200.90 C 129.20 191.20 130.20 176.60 130.70 167.00 L 129.90 167.00 C 126.00 175.60 121.90 184.40 117.60 193.10 L 100.10 223.30 L 129.40 223.30 L 129.40 223.30 Z M 192.10 212.10 C 192.10 159.50 213.90 133.60 246.10 133.60 C 278.30 133.60 300.40 160.00 300.40 212.10 C 300.40 264.70 278.40 292.30 246.10 292.30 C 214.00 292.20 192.10 264.70 192.10 212.10 Z M 266.00 212.10 C 266.00 170.40 257.20 161.80 246.30 161.80 C 235.40 161.80 226.70 170.40 226.70 212.10 C 226.70 254.10 235.30 263.90 246.30 263.90 C 257.20 263.80 266.00 254.00 266.00 212.10 Z M 426.60 251.10 L 409.60 251.10 L 409.60 289.30 L 375.50 289.30 L 375.50 251.10 L 311.40 251.10 L 311.40 225.80 L 364.60 136.40 L 409.60 136.40 L 409.60 223.30 L 426.60 223.30 L 426.60 251.10 Z M 375.50 223.30 L 375.50 200.90 C 375.50 191.20 376.50 176.60 377.00 167.00 L 376.20 167.00 C 372.30 175.60 368.20 184.40 363.90 193.10 L 346.40 223.30 L 375.70 223.30 L 375.70 223.30 Z" fill="url(#SVGID_1_)" fill-opacity="0.3" fill-rule="nonzero" group-id="1,3" node-id="158" stroke="none" target-height="158.69998" target-width="361.5" target-x="65.1" target-y="133.6"></path></g><path d="M 158.70 233.10 L 141.70 233.10 L 141.70 271.30 L 107.50 271.30 L 107.50 233.10 L 43.40 233.10 L 43.40 207.80 L 96.60 118.40 L 141.60 118.40 L 141.60 205.30 L 158.60 205.30 L 158.60 233.00 L 158.70 233.00 Z M 107.40 205.40 L 107.40 183.00 C 107.40 173.30 108.40 158.70 108.90 149.10 L 108.00 149.10 C 104.10 157.70 100.00 166.50 95.70 175.20 L 78.20 205.40 L 107.50 205.40 L 107.50 205.40 Z M 170.40 194.00 C 170.40 141.40 192.20 115.50 224.40 115.50 C 256.60 115.50 278.70 141.90 278.70 194.00 C 278.70 246.60 256.70 274.20 224.40 274.20 C 192.10 274.20 170.40 246.60 170.40 194.00 Z M 244.20 194.00 C 244.20 152.30 235.40 143.70 224.50 143.70 C 213.60 143.70 204.90 152.30 204.90 194.00 C 204.90 236.00 213.50 245.80 224.50 245.80 C 235.50 245.80 244.20 236.00 244.20 194.00 Z M 404.90 233.10 L 387.90 233.10 L 387.90 271.30 L 353.80 271.30 L 353.80 233.10 L 289.70 233.10 L 289.70 207.80 L 342.90 118.40 L 387.90 118.40 L 387.90 205.30 L 404.90 205.30 L 404.90 233.10 Z M 353.70 205.40 L 353.70 183.00 C 353.70 173.30 354.70 158.70 355.20 149.10 L 354.40 149.10 C 350.50 157.70 346.40 166.50 342.10 175.20 L 324.60 205.40 L 353.90 205.40 L 353.90 205.40 Z" fill="url(#SVGID_2_)" fill-rule="nonzero" group-id="1" node-id="161" stroke="none" target-height="158.70001" target-width="361.5" target-x="43.4" target-y="115.5"></path></g><path d="M 231.60 311.40 C 215.70 311.60 195.40 310.70 175.20 307.30 C 172.10 306.80 169.10 305.60 166.20 304.50 C 164.20 303.70 162.10 302.30 162.00 300.00 C 161.90 297.60 164.10 296.20 166.10 295.40 C 169.00 294.20 172.00 293.10 175.10 292.50 C 185.70 290.30 196.40 290.10 207.20 289.20 C 223.50 287.80 239.80 288.20 256.00 288.60 C 271.20 289.00 286.40 289.70 301.30 293.50 C 305.10 294.50 310.30 295.40 310.40 299.90 C 310.50 304.50 305.20 305.40 301.40 306.30 C 290.40 308.90 279.20 309.70 268.00 310.60 C 257.40 311.30 246.80 311.30 231.60 311.40 Z" fill="#fdf6de" fill-rule="nonzero" node-id="164" stroke="none" target-height="23.800018" target-width="148.6" target-x="161.9" target-y="287.8"></path><path d="M 234.00 307.40 C 220.30 308.00 204.20 306.70 188.20 305.30 C 184.60 305.00 179.30 304.40 179.20 299.90 C 179.10 295.30 184.60 295.00 188.00 294.60 C 211.50 291.90 235.10 292.00 258.60 292.70 C 265.40 292.90 272.50 292.60 279.30 294.40 C 279.60 294.50 280.00 294.40 280.30 294.50 C 283.10 295.70 287.20 296.20 287.40 299.80 C 287.60 303.40 283.70 304.00 280.80 304.80 C 272.70 307.00 264.40 306.50 256.20 307.30 C 249.80 307.90 243.10 307.40 234.00 307.40 Z" fill="#fceec0" fill-rule="nonzero" node-id="166" stroke="none" target-height="16.100006" target-width="108.5" target-x="179.1" target-y="291.9"></path><path d="M 177.00 189.70 C 177.00 189.70 139.70 218.70 153.20 249.40 C 153.20 249.40 159.40 259.50 171.30 253.00 C 174.50 251.30 176.80 248.70 177.90 245.70 L 195.80 198.30 C 197.40 194.00 194.90 189.30 189.90 187.70 C 186.90 186.50 182.60 186.70 177.00 189.70 Z" fill="#ffa800" fill-rule="nonzero" group-id="2" node-id="170" stroke="none" target-height="73" target-width="57.699997" target-x="139.7" target-y="186.5"></path><path d="M 297.50 189.70 C 297.50 189.70 334.80 218.70 321.30 249.40 C 321.30 249.40 315.10 259.50 303.20 253.00 C 300.00 251.30 297.70 248.70 296.60 245.70 L 278.70 198.30 C 277.10 194.00 279.60 189.30 284.60 187.70 C 287.70 186.50 292.00 186.70 297.50 189.70 Z" fill="#ffa800" fill-rule="nonzero" group-id="2" node-id="172" stroke="none" target-height="73" target-width="57.69998" target-x="277.1" target-y="186.5"></path><path d="M 288.10 300.10 C 288.10 300.10 275.80 309.50 259.80 298.60 C 259.80 298.60 250.60 286.50 250.00 283.80 C 250.00 283.80 249.20 282.00 246.60 283.50 C 246.60 283.50 240.10 284.60 237.00 284.40 L 237.00 284.40 C 233.90 284.50 227.40 283.50 227.40 283.50 C 224.80 282.00 224.00 283.80 224.00 283.80 C 223.40 286.50 214.20 298.60 214.20 298.60 C 198.20 309.50 185.90 300.10 185.90 300.10 C 150.30 254.70 186.90 191.10 186.90 191.10 C 199.80 196.30 232.40 197.10 236.90 197.10 L 237.00 197.10 C 241.90 197.00 274.10 196.20 286.90 191.10 C 287.10 191.10 323.60 254.70 288.10 300.10 Z" fill="url(#SVGID_3_)" fill-rule="nonzero" group-id="2" node-id="174" stroke="none" target-height="118.399994" target-width="173.3" target-x="150.3" target-y="191.1"></path><path d="M 190.90 134.10 C 192.60 124.80 189.80 115.20 183.30 108.40 C 174.40 99.20 158.40 90.20 133.10 102.80 C 133.10 102.80 98.60 120.30 129.40 147.00 C 131.70 149.00 133.80 151.40 135.40 154.00 C 135.50 154.10 135.60 154.30 135.70 154.40 C 137.90 157.80 141.50 160.10 145.40 160.90 C 155.90 163.00 185.10 166.10 190.90 134.10 Z" fill="url(#SVGID_4_)" fill-rule="nonzero" group-id="2" node-id="176" stroke="none" target-height="75.90001" target-width="94.00001" target-x="98.6" target-y="90.2"></path><path d="M 179.10 132.40 C 180.30 126.10 178.40 119.50 173.90 114.90 C 167.90 108.60 156.90 102.50 139.70 111.10 C 139.70 111.10 116.10 123.00 137.20 141.30 C 138.80 142.70 140.20 144.30 141.30 146.10 C 141.40 146.20 141.40 146.30 141.50 146.40 C 143.00 148.70 145.40 150.30 148.10 150.80 C 155.20 152.20 175.10 154.20 179.10 132.40 Z" fill="url(#SVGID_5_)" fill-rule="nonzero" group-id="2" node-id="178" stroke="none" target-height="51.699997" target-width="64.200005" target-x="116.1" target-y="102.5"></path><path d="M 279.10 134.10 C 277.40 124.80 280.20 115.20 286.70 108.40 C 295.60 99.20 311.60 90.20 336.90 102.80 C 336.90 102.80 371.40 120.30 340.60 147.00 C 338.30 149.00 336.20 151.40 334.60 154.00 C 334.50 154.10 334.40 154.30 334.30 154.40 C 332.10 157.80 328.50 160.10 324.60 160.90 C 314.10 163.00 284.90 166.10 279.10 134.10 Z" fill="url(#SVGID_6_)" fill-rule="nonzero" group-id="2" node-id="180" stroke="none" target-height="75.90001" target-width="94" target-x="277.4" target-y="90.2"></path><path d="M 290.90 132.40 C 289.70 126.10 291.60 119.50 296.10 114.90 C 302.10 108.60 313.10 102.50 330.30 111.10 C 330.30 111.10 353.90 123.00 332.80 141.30 C 331.20 142.70 329.80 144.30 328.70 146.10 C 328.60 146.20 328.60 146.30 328.50 146.40 C 327.00 148.70 324.60 150.30 321.90 150.80 C 314.80 152.20 294.90 154.20 290.90 132.40 Z" fill="url(#SVGID_7_)" fill-rule="nonzero" group-id="2" node-id="182" stroke="none" target-height="51.699997" target-width="64.19998" target-x="289.7" target-y="102.5"></path><path d="M 300.40 153.90 C 299.10 157.00 298.80 160.30 299.80 163.50 C 300.40 165.50 300.80 167.50 300.80 169.50 C 300.80 188.70 272.00 204.30 236.50 204.30 C 201.00 204.30 172.20 188.70 172.20 169.50 C 172.20 167.50 172.50 165.50 173.10 163.50 C 174.10 160.30 173.90 157.00 172.60 153.90 C 169.70 147.10 168.20 139.70 168.20 132.00 C 168.30 98.20 198.80 70.90 236.50 70.90 C 274.20 70.90 304.80 98.30 304.80 132.20 C 304.80 139.80 303.20 147.10 300.40 153.90 Z" fill="url(#SVGID_8_)" fill-rule="nonzero" group-id="2" node-id="184" stroke="none" target-height="133.4" target-width="136.59999" target-x="168.2" target-y="70.9"></path><path d="M 220.70 69.90 C 214.20 64.40 198.90 55.00 179.80 67.00 C 179.80 67.00 202.90 66.00 210.40 85.60 C 212.10 90.00 218.20 90.50 220.60 86.40 C 221.80 84.40 222.80 81.50 223.50 77.40 C 224.00 74.60 222.90 71.80 220.70 69.90 Z" fill="url(#SVGID_9_)" fill-rule="nonzero" group-id="2" node-id="186" stroke="none" target-height="35.5" target-width="44.199997" target-x="179.8" target-y="55"></path><path d="M 240.80 69.90 C 247.30 64.40 262.60 55.00 281.70 67.00 C 281.70 67.00 258.60 66.00 251.10 85.60 C 249.40 90.00 243.30 90.50 240.90 86.40 C 239.70 84.40 238.70 81.50 238.00 77.40 C 237.50 74.60 238.60 71.80 240.80 69.90 Z" fill="url(#SVGID_10_)" fill-rule="nonzero" group-id="2" node-id="188" stroke="none" target-height="35.5" target-width="44.200012" target-x="237.5" target-y="55"></path><path d="M 219.80 72.60 C 217.70 70.50 235.80 42.80 235.80 33.90 C 235.80 33.90 233.20 67.10 239.90 71.40 C 240.90 72.10 241.00 73.50 240.10 74.30 C 236.00 77.30 228.40 80.80 219.80 72.60 Z" fill="url(#SVGID_11_)" fill-rule="nonzero" group-id="2" node-id="190" stroke="none" target-height="46.9" target-width="23.300003" target-x="217.7" target-y="33.9"></path><path d="M 276.10 107.60 C 276.10 107.60 269.50 101.80 263.70 108.40" fill="#d69400" fill-rule="nonzero" group-id="2" node-id="192" stroke="none" target-height="6.5999985" target-width="12.399994" target-x="263.7" target-y="101.8"></path><path d="M 199.10 107.60 C 199.10 107.60 205.70 101.80 211.50 108.40" fill="#d69400" fill-rule="nonzero" group-id="2" node-id="194" stroke="none" target-height="6.5999985" target-width="12.399994" target-x="199.1" target-y="101.8"></path><path d="M 250.20 158.90 C 250.20 163.10 244.30 166.50 237.10 166.50 C 229.90 166.50 224.00 163.10 224.00 158.90 C 224.00 158.10 224.20 157.40 224.60 156.70 C 225.60 154.80 226.20 152.50 226.20 150.10 C 226.20 150.00 226.20 149.90 226.20 149.80 C 227.50 153.30 230.90 155.70 234.80 155.70 C 239.90 155.70 244.00 151.60 244.00 146.50 C 244.00 141.80 240.50 138.00 235.90 137.40 C 236.30 137.30 236.70 137.30 237.10 137.30 C 243.20 137.30 248.10 142.80 248.10 149.60 C 248.10 149.70 248.10 149.90 248.10 150.00 C 248.00 152.30 248.60 154.60 249.70 156.50 C 250.00 157.40 250.20 158.20 250.20 158.90 Z" fill="#372520" fill-rule="nonzero" group-id="2,4" node-id="198" stroke="none" target-height="29.199997" target-width="26.199997" target-x="224" target-y="137.3"></path><path d="M 243.90 146.60 C 243.90 151.70 239.80 155.80 234.70 155.80 C 230.80 155.80 227.40 153.30 226.10 149.90 L 226.10 149.80 C 226.10 143.50 230.40 138.20 235.90 137.60 C 240.40 138.10 243.90 141.90 243.90 146.60 Z" fill="url(#SVGID_12_)" fill-rule="nonzero" group-id="2,4" node-id="200" stroke="none" target-height="18.199997" target-width="17.799988" target-x="226.1" target-y="137.6"></path><path d="M 275.40 228.00 L 275.40 251.40 C 275.40 260.90 269.50 268.60 262.10 268.60 L 207.90 268.60 C 200.60 268.60 194.60 260.90 194.60 251.40 L 194.60 228.00 C 194.60 216.50 203.20 208.20 211.70 211.60 C 218.60 214.30 226.60 215.90 235.00 215.90 C 243.50 215.90 251.40 214.30 258.30 211.60 C 266.80 208.20 275.40 216.50 275.40 228.00 Z" fill="#ffffff" fill-rule="nonzero" group-id="2,5" node-id="205" stroke="none" target-height="60.40001" target-width="80.79999" target-x="194.6" target-y="208.2"></path><path d="M 269.00 229.90 L 269.00 249.60 C 269.00 257.60 264.00 264.10 257.80 264.10 L 212.10 264.10 C 205.90 264.10 200.90 257.60 200.90 249.60 L 200.90 229.90 C 200.90 220.20 208.10 213.20 215.30 216.10 C 221.10 218.40 227.80 219.70 235.00 219.70 C 242.10 219.70 248.80 218.40 254.70 216.10 C 261.80 213.20 269.00 220.20 269.00 229.90 Z" fill="#f5c400" fill-rule="nonzero" group-id="2,5" node-id="207" stroke="none" target-height="50.90001" target-width="68.100006" target-x="200.9" target-y="213.2"></path><path d="M 221.90 245.80 C 221.80 246.20 221.70 246.60 221.40 246.90 C 221.10 247.20 220.80 247.40 220.30 247.50 L 214.50 248.60 L 214.50 247.40 L 218.00 246.80 C 218.30 246.80 218.40 246.60 218.50 246.30 L 219.30 241.70 L 222.60 241.70 L 221.90 245.80 Z M 215.80 240.50 C 215.60 240.30 215.50 240.00 215.50 239.60 L 215.50 231.20 C 215.50 230.80 215.60 230.50 215.90 230.30 C 216.10 230.10 216.50 229.90 216.80 229.90 L 217.50 229.90 C 217.60 229.90 217.70 229.80 217.80 229.70 L 218.10 229.10 L 221.20 229.10 L 220.70 230.40 C 220.60 230.60 220.50 230.80 220.30 230.90 C 220.10 231.00 219.90 231.10 219.70 231.10 L 219.00 231.10 C 218.90 231.10 218.80 231.10 218.80 231.20 C 218.70 231.30 218.70 231.30 218.70 231.40 L 218.70 239.10 C 218.70 239.20 218.70 239.20 218.80 239.30 C 218.80 239.30 218.90 239.40 219.00 239.40 L 220.30 239.20 L 220.30 240.40 L 216.70 240.80 C 216.30 240.90 216.10 240.80 215.80 240.50 Z M 221.30 230.70 C 221.50 230.50 221.90 230.30 222.20 230.30 L 222.50 230.30 L 223.20 228.80 L 226.50 228.80 L 225.80 230.30 L 226.80 230.30 C 227.20 230.30 227.50 230.40 227.70 230.70 C 227.90 230.90 228.10 231.30 228.10 231.60 L 228.10 239.40 C 228.10 239.80 228.00 240.10 227.70 240.30 C 227.50 240.50 227.10 240.70 226.80 240.70 L 222.20 240.70 C 221.80 240.70 221.50 240.60 221.30 240.30 C 221.10 240.10 220.90 239.70 220.90 239.40 L 220.90 231.60 C 220.90 231.20 221.10 230.90 221.30 230.70 Z M 225.10 231.60 C 225.00 231.50 225.00 231.50 224.90 231.50 L 224.20 231.50 C 224.10 231.50 224.00 231.50 224.00 231.60 C 223.90 231.70 223.90 231.70 223.90 231.80 L 223.90 234.90 L 225.20 234.90 L 225.20 231.80 C 225.20 231.70 225.20 231.60 225.10 231.60 Z M 225.10 239.40 C 225.20 239.30 225.20 239.30 225.20 239.20 L 225.20 236.10 L 223.90 236.10 L 223.90 239.20 C 223.90 239.30 223.90 239.40 224.00 239.40 C 224.10 239.50 224.10 239.50 224.20 239.50 L 224.90 239.50 C 225.00 239.50 225.00 239.50 225.10 239.40 Z M 227.40 248.40 C 227.00 248.40 226.70 248.30 226.50 248.00 C 226.30 247.80 226.10 247.40 226.10 247.10 L 226.10 241.60 L 229.40 241.60 L 229.40 246.90 C 229.40 247.00 229.40 247.10 229.50 247.10 C 229.60 247.20 229.60 247.20 229.70 247.20 L 234.20 247.20 L 233.60 248.40 L 227.40 248.40 Z M 233.00 240.60 C 232.80 240.80 232.40 241.00 232.10 241.00 L 228.60 241.00 L 228.60 239.80 L 229.90 239.80 C 230.00 239.80 230.10 239.80 230.10 239.70 C 230.20 239.60 230.20 239.60 230.20 239.50 L 230.20 230.90 C 230.20 230.80 230.20 230.70 230.10 230.70 C 230.00 230.60 230.00 230.60 229.90 230.60 L 228.80 230.60 L 228.80 229.40 L 232.20 229.40 C 232.60 229.40 232.90 229.50 233.10 229.80 C 233.30 230.00 233.50 230.40 233.50 230.70 L 233.50 239.70 C 233.40 240.00 233.30 240.30 233.00 240.60 Z" fill="#000000" fill-rule="nonzero" group-id="2,5,8" node-id="211" stroke="none" target-height="19.800003" target-width="19.699997" target-x="214.5" target-y="228.8"></path><path d="M 254.90 231.40 C 255.20 231.70 255.30 232.00 255.30 232.30 L 255.30 235.30 L 252.00 235.30 L 252.00 232.60 C 252.00 232.50 252.00 232.40 251.90 232.30 C 251.80 232.20 251.70 232.20 251.60 232.20 L 239.70 232.20 C 239.60 232.20 239.50 232.20 239.40 232.30 C 239.30 232.40 239.30 232.50 239.30 232.60 L 239.30 235.30 L 235.90 235.30 L 235.90 232.40 C 235.90 232.00 236.00 231.70 236.30 231.40 C 236.60 231.10 236.90 231.00 237.30 231.00 L 244.10 231.00 L 243.60 228.80 L 247.20 228.80 L 247.70 231.00 L 254.10 231.00 C 254.40 231.00 254.70 231.10 254.90 231.40 Z M 254.90 248.00 C 254.70 248.20 254.40 248.40 254.00 248.40 L 235.80 248.40 L 235.80 247.20 L 243.80 247.20 L 243.80 242.60 L 237.10 242.60 L 237.10 241.40 L 243.80 241.40 L 243.80 237.70 L 236.40 237.70 L 236.40 236.50 L 254.70 236.50 L 254.70 237.70 L 247.20 237.70 L 247.20 241.40 L 254.00 241.40 L 254.00 242.60 L 247.20 242.60 L 247.20 247.20 L 251.60 247.20 C 251.80 247.20 251.90 247.10 251.80 246.90 L 251.30 244.00 L 254.60 244.00 L 255.00 247.10 C 255.20 247.40 255.10 247.70 254.90 248.00 Z" fill="#000000" fill-rule="nonzero" group-id="2,5,8" node-id="213" stroke="none" target-height="19.59999" target-width="19.5" target-x="235.8" target-y="228.8"></path><path d="M 242.50 187.10 C 242.50 190.47 239.77 193.20 236.40 193.20 C 233.03 193.20 230.30 190.47 230.30 187.10 C 230.30 183.73 233.03 181.00 236.40 181.00 C 239.77 181.00 242.50 183.73 242.50 187.10 Z" fill="#8d2b25" fill-rule="nonzero" group-id="2" node-id="217" stroke="none" target-height="12.199997" target-width="12.199997" target-x="230.3" target-y="181"></path><path d="M 209.00 131.70 L 209.00 131.70 C 208.50 132.20 207.60 132.20 207.10 131.70 L 200.20 124.80 C 199.70 124.30 199.70 123.40 200.20 122.90 L 200.20 122.90 C 200.70 122.40 201.60 122.40 202.10 122.90 L 209.00 129.80 C 209.60 130.30 209.60 131.20 209.00 131.70 Z" fill="#000000" fill-rule="nonzero" group-id="2,6" node-id="221" stroke="none" target-height="9.799995" target-width="9.900009" target-x="199.7" target-y="122.4"></path><path d="M 200.30 131.70 L 200.30 131.70 C 199.80 131.20 199.80 130.30 200.30 129.80 L 207.20 122.90 C 207.70 122.40 208.60 122.40 209.10 122.90 L 209.10 122.90 C 209.60 123.40 209.60 124.30 209.10 124.80 L 202.20 131.70 C 201.60 132.20 200.80 132.20 200.30 131.70 Z" fill="#000000" fill-rule="nonzero" group-id="2,6" node-id="223" stroke="none" target-height="9.799995" target-width="9.800003" target-x="199.8" target-y="122.4"></path><path d="M 274.90 131.70 L 274.90 131.70 C 274.40 132.20 273.50 132.20 273.00 131.70 L 266.10 124.80 C 265.60 124.30 265.60 123.40 266.10 122.90 L 266.10 122.90 C 266.60 122.40 267.50 122.40 268.00 122.90 L 274.90 129.80 C 275.50 130.30 275.50 131.20 274.90 131.70 Z" fill="#000000" fill-rule="nonzero" group-id="2,7" node-id="228" stroke="none" target-height="9.799995" target-width="9.899994" target-x="265.6" target-y="122.4"></path><path d="M 266.20 131.70 L 266.20 131.70 C 265.70 131.20 265.70 130.30 266.20 129.80 L 273.10 122.90 C 273.60 122.40 274.50 122.40 275.00 122.90 L 275.00 122.90 C 275.50 123.40 275.50 124.30 275.00 124.80 L 268.10 131.70 C 267.50 132.20 266.70 132.20 266.20 131.70 Z" fill="#000000" fill-rule="nonzero" group-id="2,7" node-id="230" stroke="none" target-height="9.799995" target-width="9.799988" target-x="265.7" target-y="122.4"></path></svg>