<?xml version="1.0" standalone="no"?><!DOCTYPE svg PUBLIC "-//W3C//DTD SVG 1.1//EN" "http://www.w3.org/Graphics/SVG/1.1/DTD/svg11.dtd"><svg height="55189" node-id="1" sillyvg="true" template-height="55189" template-width="42945" version="1.1" viewBox="0 0 42945 55189" width="42945" xmlns="http://www.w3.org/2000/svg" xmlns:xlink="http://www.w3.org/1999/xlink"><defs node-id="44"></defs><path d="M 37461.00 9683.00 C 37461.00 10682.60 37063.80 11641.26 36356.79 12348.09 C 35649.78 13054.91 34690.87 13452.00 33691.00 13452.00 C 32691.13 13452.00 31732.22 13054.91 31025.21 12348.09 C 30318.20 11641.26 29921.00 10682.60 29921.00 9683.00 C 29921.00 8683.40 30318.20 7724.74 31025.21 7017.91 C 31732.22 6311.09 32691.13 5914.00 33691.00 5914.00 C 34690.87 5914.00 35649.78 6311.09 36356.79 7017.91 C 37063.80 7724.74 37461.00 8683.40 37461.00 9683.00 Z" fill="#000000" fill-rule="evenodd" node-id="47" stroke="#000000" stroke-linecap="butt" stroke-width="68.5495" target-height="7538" target-width="7540" target-x="29921" target-y="5914"></path><path d="M 18234.00 9496.00 C 18234.00 10495.60 17836.80 11454.26 17129.79 12161.09 C 16422.78 12867.91 15463.87 13265.00 14464.00 13265.00 C 13464.13 13265.00 12505.22 12867.91 11798.21 12161.09 C 11091.20 11454.26 10694.00 10495.60 10694.00 9496.00 C 10694.00 8496.40 11091.20 7537.74 11798.21 6830.91 C 12505.22 6124.09 13464.13 5727.00 14464.00 5727.00 C 15463.87 5727.00 16422.78 6124.09 17129.79 6830.91 C 17836.80 7537.74 18234.00 8496.40 18234.00 9496.00 Z" fill="#000000" fill-rule="evenodd" node-id="49" stroke="#000000" stroke-linecap="butt" stroke-width="68.5495" target-height="7538" target-width="7540" target-x="10694" target-y="5727"></path><path d="M 18824.00 6330.00 C 18824.00 6330.00 19756.00 6156.00 19893.00 6767.00 L 21278.00 6321.00 C 21278.00 6321.00 21231.00 5392.00 21695.00 5116.00 C 21695.00 5116.00 21122.00 4826.00 20801.00 5908.00 C 20801.00 5908.00 20138.00 4631.00 18956.00 5134.00 C 18956.00 5134.00 20136.00 5466.00 20353.00 6300.00 C 20353.00 6300.00 19266.00 5523.00 18824.00 6330.00 Z" fill="#fefefe" fill-rule="evenodd" node-id="51" stroke="#fefefe" stroke-linecap="butt" stroke-width="68.5495" target-height="2136" target-width="2871" target-x="18824" target-y="4631"></path><path d="M 28587.00 43609.00 C 28587.00 43609.00 31768.00 40072.00 34948.00 42842.00 C 34948.00 42842.00 34838.00 51423.00 34208.00 52191.00 C 33577.00 52959.00 33934.00 55454.00 29026.00 54768.00 C 29026.00 54768.00 26750.00 54851.00 28313.00 49861.00 C 28313.00 49861.00 28587.00 44651.00 28587.00 43609.00 Z" fill="#000000" fill-rule="evenodd" node-id="53" stroke="#000000" stroke-linecap="butt" stroke-width="68.5495" target-height="15382" target-width="8198" target-x="26750" target-y="40072"></path><path d="M 21570.00 43878.00 C 21570.00 43878.00 18390.00 40341.00 15209.00 43110.00 C 15209.00 43110.00 15319.00 51692.00 15949.00 52460.00 C 16580.00 53227.00 16223.00 55722.00 21131.00 55037.00 C 21131.00 55037.00 23407.00 55119.00 21844.00 50129.00 C 21844.00 50129.00 21570.00 44920.00 21570.00 43878.00 Z" fill="#000000" fill-rule="evenodd" node-id="55" stroke="#000000" stroke-linecap="butt" stroke-width="68.5495" target-height="15381" target-width="8198" target-x="15209" target-y="40341"></path><path d="M 41474.00 28354.00 C 41474.00 34307.84 39629.41 40017.84 36346.03 44227.84 C 33062.64 48437.84 28609.41 50803.00 23966.00 50803.00 C 19322.59 50803.00 14869.36 48437.84 11585.97 44227.84 C 8302.59 40017.84 6458.00 34307.84 6458.00 28354.00 C 6458.00 22400.16 8302.59 16690.16 11585.97 12480.16 C 14869.36 8270.16 19322.59 5905.00 23966.00 5905.00 C 28609.41 5905.00 33062.64 8270.16 36346.03 12480.16 C 39629.41 16690.16 41474.00 22400.16 41474.00 28354.00 Z" fill="#fefefe" fill-rule="evenodd" node-id="57" stroke="#fefefe" stroke-linecap="butt" stroke-width="68.5495" target-height="44898" target-width="35016" target-x="6458" target-y="5905"></path><path d="M 27989.00 15561.00 C 27989.00 15561.00 26859.00 11811.00 31116.00 12532.00 C 31116.00 12532.00 32759.00 13024.00 34229.00 15026.00 C 34229.00 15026.00 35359.00 16428.00 34665.00 17845.00 C 34665.00 17845.00 34190.00 19187.00 33098.00 19634.00 C 33098.00 19634.00 31911.00 20346.00 30887.00 18624.00 C 30887.00 18624.00 29521.00 16484.00 28909.00 16322.00 C 28909.00 16322.00 28031.00 15810.00 27989.00 15561.00 Z" fill="#000000" fill-rule="evenodd" node-id="59" stroke="#000000" stroke-linecap="butt" stroke-width="68.5495" target-height="8535" target-width="8500" target-x="26859" target-y="11811"></path><path d="M 21193.00 14968.00 C 21193.00 14968.00 22425.00 10880.00 17784.00 11666.00 C 17784.00 11666.00 15993.00 12202.00 14391.00 14385.00 C 14391.00 14385.00 13159.00 15913.00 13916.00 17458.00 C 13916.00 17458.00 14434.00 18921.00 15624.00 19408.00 C 15624.00 19408.00 16918.00 20184.00 18034.00 18307.00 C 18034.00 18307.00 19523.00 15974.00 20190.00 15797.00 C 20190.00 15797.00 21147.00 15239.00 21193.00 14968.00 Z" fill="#000000" fill-rule="evenodd" node-id="61" stroke="#000000" stroke-linecap="butt" stroke-width="68.5495" target-height="9304" target-width="9266" target-x="13159" target-y="10880"></path><path d="M 25480.00 15812.00 C 25480.00 16061.30 25342.09 16300.40 25096.60 16476.68 C 24851.12 16652.96 24518.17 16752.00 24171.00 16752.00 C 23823.83 16752.00 23490.88 16652.96 23245.40 16476.68 C 22999.91 16300.40 22862.00 16061.30 22862.00 15812.00 C 22862.00 15562.70 22999.91 15323.60 23245.40 15147.32 C 23490.88 14971.04 23823.83 14872.00 24171.00 14872.00 C 24518.17 14872.00 24851.12 14971.04 25096.60 15147.32 C 25342.09 15323.60 25480.00 15562.70 25480.00 15812.00 Z" fill="#000000" fill-rule="evenodd" node-id="63" stroke="#000000" stroke-linecap="butt" stroke-width="68.5495" target-height="1880" target-width="2618" target-x="22862" target-y="14872"></path><path d="M 23887.00 30174.00 C 23887.00 30174.00 28436.00 35820.00 29804.00 34870.00 C 31172.00 33920.00 36380.00 27001.00 32251.00 23767.00 L 24578.00 27368.00 L 23887.00 30174.00 Z" fill="#ed0e11" fill-rule="evenodd" node-id="65" stroke="#fefefe" stroke-linecap="butt" stroke-width="68.5495" target-height="12053" target-width="12493" target-x="23887" target-y="23767"></path><path d="M 23335.00 29933.00 C 23335.00 29933.00 18227.00 35078.00 16964.00 33992.00 C 15702.00 32906.00 11237.00 25485.00 15678.00 22695.00 L 18024.00 24109.00 L 18819.00 24588.00 L 22133.00 26585.00 L 22938.00 27070.00 L 23335.00 29933.00 Z" fill="#ed0e11" fill-rule="evenodd" node-id="67" stroke="#fefefe" stroke-linecap="butt" stroke-width="68.5495" target-height="12383" target-width="12098" target-x="11237" target-y="22695"></path><g node-id="127"><path d="M 25364.39 28663.72 L 25361.36 28709.95 L 25357.15 28755.85 L 25351.76 28801.44 L 25345.19 28846.73 L 25337.44 28891.74 L 25328.51 28936.48 L 25318.40 28981.07 L 25307.16 29025.22 L 25294.81 29068.97 L 25281.35 29112.31 L 25266.76 29155.27 L 25251.04 29197.85 L 25234.22 29240.04 L 25216.33 29281.70 L 25197.39 29322.83 L 25177.39 29363.46 L 25156.31 29403.60 L 25134.16 29443.25 L 25111.00 29482.29 L 25086.84 29520.69 L 25061.68 29558.46 L 25035.50 29595.61 L 25008.29 29632.16 L 24980.05 29668.12 L 24950.94 29703.24 L 24920.87 29737.62 L 24889.85 29771.27 L 24857.85 29804.18 L 24824.87 29836.38 L 24790.88 29867.87 L 24756.04 29898.42 L 24720.61 29927.90 L 24684.56 29956.32 L 24647.89 29983.70 L 24610.58 30010.04 L 24572.63 30035.37 L 24533.95 30059.74 L 24494.79 30083.02 L 24455.12 30105.22 L 24414.96 30126.35 L 24374.26 30146.40 L 24333.04 30165.40 L 24291.31 30183.34 L 24249.21 30200.15 L 24206.73 30215.84 L 24163.85 30230.43 L 24120.57 30243.91 L 24076.87 30256.28 L 24032.88 30267.51 L 23988.65 30277.58 L 23944.15 30286.49 L 23899.37 30294.25 L 23854.28 30300.86 L 23808.89 30306.31 L 23763.47 30310.56 L 23717.90 30313.62 L 23672.17 30315.47 L 23626.27 30316.12 L 23580.18 30315.56 L 23533.88 30313.79 L 23487.65 30310.76 L 23441.74 30306.55 L 23396.16 30301.16 L 23350.87 30294.59 L 23305.86 30286.84 L 23261.12 30277.91 L 23216.53 30267.79 L 23172.38 30256.56 L 23128.63 30244.21 L 23085.29 30230.75 L 23042.33 30216.16 L 22999.75 30200.44 L 22957.56 30183.62 L 22915.90 30165.73 L 22874.77 30146.79 L 22834.14 30126.79 L 22794.00 30105.72 L 22754.35 30083.56 L 22715.31 30060.40 L 22676.91 30036.24 L 22639.14 30011.08 L 22601.99 29984.90 L 22565.44 29957.69 L 22529.48 29929.45 L 22494.36 29900.34 L 22459.98 29870.27 L 22426.33 29839.25 L 22393.42 29807.25 L 22361.22 29774.27 L 22329.73 29740.28 L 22299.18 29705.44 L 22269.70 29670.01 L 22241.28 29633.96 L 22213.90 29597.29 L 22187.56 29559.98 L 22162.23 29522.03 L 22137.86 29483.35 L 22114.58 29444.19 L 22092.38 29404.53 L 22071.25 29364.35 L 22051.19 29323.66 L 22032.19 29282.44 L 22014.26 29240.71 L 21997.45 29198.61 L 21981.76 29156.13 L 21967.17 29113.25 L 21953.69 29069.97 L 21941.32 29026.27 L 21930.09 28982.28 L 21920.02 28938.05 L 21911.11 28893.55 L 21903.35 28848.77 L 21896.74 28803.68 L 21891.29 28758.29 L 21887.04 28712.87 L 21883.98 28667.30 L 21882.13 28621.57 L 21881.48 28575.67 L 21882.04 28529.58 L 21883.81 28483.28 L 21886.84 28437.05 L 21891.05 28391.15 L 21896.44 28345.56 L 21903.01 28300.27 L 21910.76 28255.26 L 21919.69 28210.52 L 21929.81 28165.93 L 21941.04 28121.78 L 21953.39 28078.03 L 21966.85 28034.69 L 21981.44 27991.73 L 21997.16 27949.15 L 22013.98 27906.96 L 22031.87 27865.30 L 22050.81 27824.17 L 22070.81 27783.54 L 22091.88 27743.40 L 22114.04 27703.75 L 22137.20 27664.71 L 22161.36 27626.31 L 22186.52 27588.54 L 22212.70 27551.39 L 22239.91 27514.84 L 22268.15 27478.88 L 22297.26 27443.76 L 22327.33 27409.38 L 22358.35 27375.73 L 22390.35 27342.82 L 22423.33 27310.62 L 22457.32 27279.13 L 22492.16 27248.58 L 22527.59 27219.10 L 22563.64 27190.68 L 22600.31 27163.30 L 22637.62 27136.96 L 22675.56 27111.63 L 22714.25 27087.26 L 22753.41 27063.98 L 22793.07 27041.78 L 22833.24 27020.65 L 22873.94 27000.60 L 22915.16 26981.60 L 22956.89 26963.66 L 22998.99 26946.85 L 23041.47 26931.16 L 23084.35 26916.57 L 23127.63 26903.09 L 23171.33 26890.72 L 23215.31 26879.49 L 23259.55 26869.42 L 23304.05 26860.51 L 23348.83 26852.75 L 23393.92 26846.14 L 23439.31 26840.69 L 23484.73 26836.44 L 23530.30 26833.38 L 23576.03 26831.53 L 23621.93 26830.88 L 23668.02 26831.44 L 23714.32 26833.21 L 23760.55 26836.24 L 23806.46 26840.45 L 23852.04 26845.84 L 23897.33 26852.41 L 23942.34 26860.16 L 23987.08 26869.09 L 24031.67 26879.21 L 24075.82 26890.44 L 24119.57 26902.79 L 24162.91 26916.25 L 24205.87 26930.84 L 24248.45 26946.56 L 24290.64 26963.38 L 24332.30 26981.27 L 24373.43 27000.21 L 24414.06 27020.21 L 24454.20 27041.28 L 24493.85 27063.44 L 24532.89 27086.60 L 24571.29 27110.76 L 24609.06 27135.92 L 24646.21 27162.10 L 24682.76 27189.31 L 24718.72 27217.55 L 24753.84 27246.66 L 24788.22 27276.73 L 24821.87 27307.75 L 24854.78 27339.75 L 24886.98 27372.73 L 24918.47 27406.72 L 24949.02 27441.56 L 24978.50 27476.99 L 25006.92 27513.04 L 25034.30 27549.71 L 25060.65 27587.02 L 25085.97 27624.97 L 25110.34 27663.65 L 25133.62 27702.81 L 25155.82 27742.47 L 25176.94 27782.65 L 25197.00 27823.34 L 25216.00 27864.56 L 25233.94 27906.29 L 25250.75 27948.39 L 25266.44 27990.87 L 25281.03 28033.75 L 25294.51 28077.03 L 25306.88 28120.73 L 25318.11 28164.72 L 25328.18 28208.95 L 25337.09 28253.45 L 25344.85 28298.23 L 25351.46 28343.32 L 25356.91 28388.71 L 25361.16 28434.13 L 25364.22 28479.70 L 25366.07 28525.43 L 25366.72 28571.33 L 25366.16 28617.42 L 25364.39 28663.72 Z" fill="#ed0e11" fill-rule="evenodd" group-id="1" node-id="71" stroke="#fefefe" stroke-linecap="butt" stroke-width="160.55945" target-height="3485.2344" target-width="3485.2344" target-x="21881.482" target-y="26830.883"></path></g><path d="M 5762.00 16820.00 C 5762.00 16820.00 1872.00 15756.00 1349.00 20289.00 C 1349.00 20289.00 762.00 22648.00 4628.00 25900.00 C 13119.00 27839.00 16758.00 26780.00 23881.00 29679.00 C 26693.00 30824.00 29880.00 30258.00 36930.00 31933.00 C 39621.00 32572.00 36334.00 37705.00 38732.00 37659.00 C 43047.00 39343.00 43970.00 28147.00 41735.00 27021.00 C 39865.00 26078.00 36428.00 26200.00 32625.00 26104.00 C 30097.00 26040.00 27927.00 25796.00 24910.00 25245.00 C 22065.00 24724.00 19292.00 23977.00 16760.00 23459.00 C 11248.00 22334.00 7071.00 21393.00 7247.00 19434.00 C 7247.00 19434.00 7299.00 17545.00 5762.00 16820.00 Z" fill="#000000" fill-rule="evenodd" node-id="74" stroke="#000000" stroke-linecap="butt" stroke-width="68.5495" target-height="23587" target-width="43208" target-x="762" target-y="15756"></path><path d="M 20118.00 14213.00 C 20118.00 14693.84 19929.31 15154.98 19593.43 15494.98 C 19257.55 15834.99 18802.00 16026.00 18327.00 16026.00 C 17852.00 16026.00 17396.45 15834.99 17060.57 15494.98 C 16724.69 15154.98 16536.00 14693.84 16536.00 14213.00 C 16536.00 13732.16 16724.69 13271.02 17060.57 12931.02 C 17396.45 12591.01 17852.00 12400.00 18327.00 12400.00 C 18802.00 12400.00 19257.55 12591.01 19593.43 12931.02 C 19929.31 13271.02 20118.00 13732.16 20118.00 14213.00 Z" fill="#fefefe" fill-rule="evenodd" node-id="76" stroke="#fefefe" stroke-linecap="butt" stroke-width="68.5495" target-height="3626" target-width="3582" target-x="16536" target-y="12400"></path><path d="M 19395.00 14235.00 C 19395.00 14519.84 19286.48 14793.02 19093.32 14994.43 C 18900.16 15195.85 18638.17 15309.00 18365.00 15309.00 C 18091.83 15309.00 17829.84 15195.85 17636.68 14994.43 C 17443.52 14793.02 17335.00 14519.84 17335.00 14235.00 C 17335.00 13950.16 17443.52 13676.98 17636.68 13475.57 C 17829.84 13274.15 18091.83 13161.00 18365.00 13161.00 C 18638.17 13161.00 18900.16 13274.15 19093.32 13475.57 C 19286.48 13676.98 19395.00 13950.16 19395.00 14235.00 Z" fill="#000000" fill-rule="evenodd" node-id="78" stroke="#000000" stroke-linecap="butt" stroke-width="68.5495" target-height="2148" target-width="2060" target-x="17335" target-y="13161"></path><path d="M 32256.00 14668.00 C 32256.00 15109.06 32082.90 15532.05 31774.78 15843.92 C 31466.65 16155.79 31048.75 16331.00 30613.00 16331.00 C 30177.25 16331.00 29759.35 16155.79 29451.22 15843.92 C 29143.10 15532.05 28970.00 15109.06 28970.00 14668.00 C 28970.00 14226.94 29143.10 13803.95 29451.22 13492.08 C 29759.35 13180.21 30177.25 13005.00 30613.00 13005.00 C 31048.75 13005.00 31466.65 13180.21 31774.78 13492.08 C 32082.90 13803.95 32256.00 14226.94 32256.00 14668.00 Z" fill="#fefefe" fill-rule="evenodd" node-id="80" stroke="#fefefe" stroke-linecap="butt" stroke-width="68.5495" target-height="3326" target-width="3286" target-x="28970" target-y="13005"></path><path d="M 31384.00 14698.00 C 31384.00 14916.01 31300.87 15125.09 31152.91 15279.24 C 31004.94 15433.40 30804.26 15520.00 30595.00 15520.00 C 30385.74 15520.00 30185.06 15433.40 30037.09 15279.24 C 29889.13 15125.09 29806.00 14916.01 29806.00 14698.00 C 29806.00 14479.99 29889.13 14270.91 30037.09 14116.76 C 30185.06 13962.60 30385.74 13876.00 30595.00 13876.00 C 30804.26 13876.00 31004.94 13962.60 31152.91 14116.76 C 31300.87 14270.91 31384.00 14479.99 31384.00 14698.00 Z" fill="#000000" fill-rule="evenodd" node-id="82" stroke="#000000" stroke-linecap="butt" stroke-width="68.5495" target-height="1644" target-width="1578" target-x="29806" target-y="13876"></path><path d="M 23793.00 22269.00 C 23793.00 22269.00 24564.00 22411.00 25512.00 21081.00 C 26096.00 19651.00 24305.00 16902.00 24085.00 16668.00 L 23896.00 16661.00 C 24735.00 18027.00 20494.00 20366.00 23793.00 22269.00 Z" fill="#000000" fill-rule="evenodd" node-id="84" stroke="#000000" stroke-linecap="butt" stroke-width="68.5495" target-height="5750" target-width="5602" target-x="20494" target-y="16661"></path><path d="M 25127.00 20924.00 C 25127.00 21151.03 25007.63 21368.75 24795.15 21529.28 C 24582.67 21689.81 24294.49 21780.00 23994.00 21780.00 C 23693.51 21780.00 23405.33 21689.81 23192.85 21529.28 C 22980.37 21368.75 22861.00 21151.03 22861.00 20924.00 C 22861.00 20696.97 22980.37 20479.25 23192.85 20318.72 C 23405.33 20158.19 23693.51 20068.00 23994.00 20068.00 C 24294.49 20068.00 24582.67 20158.19 24795.15 20318.72 C 25007.63 20479.25 25127.00 20696.97 25127.00 20924.00 Z" fill="#f58b98" fill-rule="evenodd" node-id="86" stroke="#f58b98" stroke-linecap="butt" stroke-width="68.5495" target-height="1712" target-width="2266" target-x="22861" target-y="20068"></path><path d="M 16379.00 8223.00 C 16379.00 8223.00 16398.00 4184.00 19333.00 1781.00 C 20540.00 793.00 22241.00 81.00 24637.00 42.00 C 24637.00 42.00 30034.00 376.00 31388.00 4343.00 C 31388.00 4343.00 32303.00 6993.00 32246.00 8805.00 C 32246.00 8805.00 23836.00 13363.00 16379.00 8223.00 Z" fill="#ed0e11" fill-rule="evenodd" group-id="2" node-id="89" stroke="#c7d421" stroke-linecap="butt" stroke-width="68.5495" target-height="13321" target-width="15924" target-x="16379" target-y="42"></path><path d="M 19356.00 1969.00 C 19356.00 1969.00 24886.00 3743.00 29768.00 2179.00" fill="none" group-id="2" node-id="91" stroke="#fefefe" stroke-linecap="butt" stroke-width="514.121" target-height="1774" target-width="10412" target-x="19356" target-y="1969"></path><path d="M 16846.00 5660.00 C 16846.00 5660.00 24717.00 8434.00 31716.00 5860.00" fill="none" group-id="2" node-id="93" stroke="#fefefe" stroke-linecap="butt" stroke-width="514.121" target-height="2774" target-width="14870" target-x="16846" target-y="5660"></path><path d="M 24637.00 154.00 C 24637.00 154.00 23216.00 850.00 22169.00 2085.00 C 20479.00 4080.00 18938.00 7301.00 19732.00 9918.00" fill="none" group-id="2" node-id="95" stroke="#fefefe" stroke-linecap="butt" stroke-width="342.748" target-height="9764" target-width="5699" target-x="18938" target-y="154"></path><path d="M 27686.00 10290.00 C 27686.00 10290.00 28600.00 1547.00 25137.00 171.00" fill="none" group-id="2" node-id="97" stroke="#fefefe" stroke-linecap="butt" stroke-width="342.748" target-height="10119" target-width="3463" target-x="25137" target-y="171"></path><path d="M 18516.00 2654.00 C 18573.00 3337.00 25653.00 5540.00 30439.00 2820.00" fill="none" group-id="2" node-id="99" stroke="#fefefe" stroke-linecap="butt" stroke-width="514.121" target-height="2886" target-width="11923" target-x="18516" target-y="2654"></path><path d="M 16614.00 6966.00 C 16752.00 8177.00 27373.00 10295.00 32036.00 6779.00" fill="none" group-id="2" node-id="101" stroke="#fefefe" stroke-linecap="butt" stroke-width="514.121" target-height="3516" target-width="15422" target-x="16614" target-y="6779"></path><path d="M 24751.00 214.00 C 25019.00 2446.00 22938.00 7391.00 23439.00 10626.00" fill="none" group-id="2" node-id="103" stroke="#fefefe" stroke-linecap="butt" stroke-width="171.374" target-height="10412" target-width="2081" target-x="22938" target-y="214"></path><path d="M 11924.77 16941.53 L 11924.77 16941.53 L 11932.33 16961.88 L 11939.41 16982.29 L 11946.02 17002.78 L 11952.17 17023.37 L 11957.85 17044.03 L 11963.06 17064.80 L 11967.83 17085.71 L 11972.13 17106.66 L 11975.96 17127.66 L 11979.33 17148.69 L 11982.24 17169.79 L 11984.69 17190.93 L 11986.68 17212.15 L 11988.20 17233.36 L 11989.27 17254.58 L 11989.87 17275.81 L 11990.02 17297.04 L 11989.70 17318.30 L 11988.92 17339.54 L 11987.68 17360.74 L 11985.99 17381.91 L 11983.83 17403.04 L 11981.21 17424.15 L 11978.13 17445.24 L 11974.60 17466.23 L 11970.61 17487.15 L 11966.16 17507.99 L 11961.25 17528.76 L 11955.87 17549.47 L 11950.03 17570.11 L 11943.76 17590.58 L 11937.02 17610.93 L 11929.83 17631.17 L 11922.17 17651.31 L 11914.04 17671.33 L 11905.44 17691.26 L 11896.40 17710.99 L 11886.97 17730.44 L 11877.14 17749.61 L 11866.93 17768.51 L 11856.32 17787.15 L 11845.32 17805.52 L 11833.90 17823.68 L 11822.11 17841.54 L 11809.98 17859.10 L 11797.48 17876.36 L 11784.61 17893.34 L 11771.38 17910.03 L 11757.78 17926.44 L 11743.85 17942.52 L 11729.60 17958.28 L 11715.01 17973.72 L 11700.09 17988.85 L 11684.83 18003.66 L 11669.26 18018.13 L 11653.39 18032.25 L 11637.21 18046.03 L 11620.74 18059.45 L 11603.96 18072.53 L 11586.86 18085.27 L 11569.52 18097.62 L 11551.90 18109.60 L 11534.01 18121.19 L 11515.85 18132.41 L 11497.40 18143.26 L 11478.67 18153.74 L 11459.76 18163.78 L 11440.60 18173.42 L 11421.19 18182.65 L 11401.54 18191.47 L 11381.63 18199.90 L 11361.45 18207.91 L 1365.95 22051.52 L 1345.60 22059.08 L 1325.17 22066.17 L 1304.67 22072.79 L 1284.08 22078.94 L 1263.40 22084.62 L 1242.63 22089.84 L 1221.71 22094.61 L 1200.75 22098.92 L 1179.74 22102.76 L 1158.70 22106.13 L 1137.60 22109.05 L 1116.44 22111.50 L 1095.22 22113.50 L 1073.99 22115.03 L 1052.77 22116.10 L 1031.54 22116.71 L 1010.29 22116.86 L 989.03 22116.55 L 967.78 22115.78 L 946.57 22114.55 L 925.39 22112.86 L 904.25 22110.71 L 883.14 22108.10 L 862.04 22105.03 L 841.04 22101.51 L 820.12 22097.52 L 799.27 22093.08 L 778.50 22088.18 L 757.79 22082.81 L 737.14 22076.98 L 716.66 22070.72 L 696.30 22063.99 L 676.06 22056.81 L 655.92 22049.15 L 635.89 22041.04 L 615.95 22032.45 L 596.22 22023.41 L 576.77 22013.99 L 557.59 22004.18 L 538.69 21993.97 L 520.05 21983.38 L 501.68 21972.38 L 483.51 21960.97 L 465.65 21949.20 L 448.09 21937.07 L 430.82 21924.58 L 413.85 21911.73 L 397.16 21898.51 L 380.74 21884.92 L 364.66 21871.00 L 348.89 21856.76 L 333.45 21842.18 L 318.33 21827.27 L 303.52 21812.02 L 289.04 21796.46 L 274.92 21780.59 L 261.15 21764.43 L 247.72 21747.97 L 234.65 21731.20 L 221.91 21714.12 L 209.56 21696.78 L 197.58 21679.17 L 185.99 21661.29 L 174.77 21643.14 L 163.92 21624.71 L 153.45 21605.99 L 143.41 21587.08 L 133.78 21567.93 L 124.55 21548.54 L 115.73 21528.89 L 107.31 21508.99 L 99.29 21488.83 L 99.29 21488.83 L 91.73 21468.49 L 84.65 21448.07 L 78.04 21427.58 L 71.89 21407.00 L 66.22 21386.33 L 61.00 21365.57 L 56.24 21344.65 L 51.94 21323.70 L 48.10 21302.71 L 44.73 21281.67 L 41.82 21260.58 L 39.38 21239.43 L 37.39 21218.22 L 35.86 21197.00 L 34.79 21175.78 L 34.19 21154.56 L 34.04 21133.32 L 34.36 21112.07 L 35.14 21090.82 L 36.38 21069.62 L 38.08 21048.46 L 40.23 21027.32 L 42.85 21006.21 L 45.93 20985.12 L 49.46 20964.13 L 53.45 20943.22 L 57.90 20922.38 L 62.82 20901.60 L 68.19 20880.90 L 74.03 20860.26 L 80.30 20839.78 L 87.04 20819.43 L 94.23 20799.19 L 101.89 20779.06 L 110.02 20759.03 L 118.62 20739.10 L 127.66 20719.37 L 137.10 20699.92 L 146.92 20680.75 L 157.13 20661.85 L 167.74 20643.22 L 178.74 20624.85 L 190.17 20606.68 L 201.95 20588.83 L 214.09 20571.27 L 226.58 20554.00 L 239.45 20537.03 L 252.68 20520.34 L 266.28 20503.93 L 280.21 20487.84 L 294.46 20472.08 L 309.05 20456.64 L 323.97 20441.52 L 339.23 20426.71 L 354.81 20412.23 L 370.68 20398.11 L 386.85 20384.34 L 403.32 20370.91 L 420.10 20357.83 L 437.20 20345.09 L 454.55 20332.74 L 472.16 20320.77 L 490.05 20309.17 L 508.21 20297.95 L 526.66 20287.10 L 545.39 20276.63 L 564.31 20266.58 L 583.46 20256.95 L 602.87 20247.72 L 622.52 20238.89 L 642.44 20230.47 L 662.61 20222.45 L 10658.11 16378.84 L 10678.46 16371.28 L 10698.89 16364.19 L 10719.39 16357.58 L 10739.98 16351.43 L 10760.66 16345.75 L 10781.43 16340.53 L 10802.36 16335.75 L 10823.32 16331.45 L 10844.32 16327.61 L 10865.37 16324.23 L 10886.47 16321.32 L 10907.62 16318.86 L 10928.85 16316.87 L 10950.07 16315.34 L 10971.29 16314.26 L 10992.52 16313.65 L 11013.77 16313.50 L 11035.03 16313.81 L 11056.28 16314.58 L 11077.49 16315.81 L 11098.67 16317.50 L 11119.81 16319.65 L 11140.92 16322.26 L 11162.02 16325.33 L 11183.02 16328.86 L 11203.94 16332.84 L 11224.79 16337.28 L 11245.56 16342.19 L 11266.27 16347.55 L 11286.92 16353.38 L 11307.40 16359.65 L 11327.76 16366.37 L 11348.00 16373.56 L 11368.14 16381.21 L 11388.18 16389.33 L 11408.11 16397.91 L 11427.84 16406.95 L 11447.29 16416.37 L 11466.47 16426.19 L 11485.37 16436.39 L 11504.01 16446.99 L 11522.38 16457.98 L 11540.55 16469.39 L 11558.41 16481.16 L 11575.97 16493.29 L 11593.24 16505.78 L 11610.22 16518.63 L 11626.91 16531.85 L 11643.32 16545.44 L 11659.41 16559.36 L 11675.17 16573.60 L 11690.61 16588.18 L 11705.73 16603.09 L 11720.54 16618.34 L 11735.02 16633.91 L 11749.14 16649.77 L 11762.91 16665.93 L 11776.34 16682.40 L 11789.42 16699.16 L 11802.16 16716.25 L 11814.51 16733.59 L 11826.48 16751.19 L 11838.07 16769.07 L 11849.29 16787.22 L 11860.14 16805.66 L 11870.61 16824.38 L 11880.65 16843.28 L 11890.28 16862.43 L 11899.51 16881.83 L 11908.33 16901.47 L 11916.75 16921.37 L 11924.77 16941.53 Z" fill="#1186eb" fill-rule="evenodd" group-id="3" node-id="108" stroke="#1186eb" stroke-linecap="butt" stroke-width="66.141" target-height="5803.3564" target-width="11955.971" target-x="34.04492" target-y="16313.503"></path><path d="M 23283.00 12224.00 C 24761.00 15680.00 23158.00 19679.00 19703.00 21157.00 C 16247.00 22635.00 12248.00 21032.00 10770.00 17576.00 C 9292.00 14121.00 10895.00 10122.00 14351.00 8644.00 C 17806.00 7166.00 21805.00 8769.00 23283.00 12224.00 Z M 22060.00 12747.00 C 23249.00 15527.00 21960.00 18745.00 19180.00 19934.00 C 16400.00 21123.00 13182.00 19834.00 11993.00 17054.00 C 10804.00 14273.00 12093.00 11056.00 14873.00 9867.00 C 17654.00 8677.00 20871.00 9967.00 22060.00 12747.00 Z" fill="#faee7b" fill-rule="evenodd" group-id="4" node-id="112" stroke="#faee7b" stroke-linecap="butt" stroke-width="68.5495" target-height="15469" target-width="15469" target-x="9292" target-y="7166"></path><path d="M 22492.00 12563.00 C 23783.00 15581.00 22383.00 19075.00 19364.00 20366.00 C 16346.00 21657.00 12852.00 20257.00 11561.00 17238.00 C 10270.00 14220.00 11670.00 10726.00 14689.00 9435.00 C 17707.00 8144.00 21201.00 9544.00 22492.00 12563.00 Z M 22060.00 12747.00 C 23249.00 15527.00 21960.00 18745.00 19180.00 19934.00 C 16400.00 21123.00 13182.00 19834.00 11993.00 17054.00 C 10804.00 14273.00 12093.00 11056.00 14873.00 9867.00 C 17654.00 8677.00 20871.00 9967.00 22060.00 12747.00 Z" fill="#ab7e4d" fill-rule="evenodd" group-id="4" node-id="114" stroke="#ab7e4d" stroke-linecap="butt" stroke-width="68.5495" target-height="13513" target-width="13513" target-x="10270" target-y="8144"></path><path d="M 7263.00 19784.00 C 7263.00 19784.00 7012.00 17616.00 6652.00 17547.00 C 6291.00 17477.00 1528.00 19334.00 1528.00 19334.00 C 1528.00 19334.00 854.00 21280.00 1607.00 22064.00 C 2360.00 22847.00 5141.00 21505.00 5141.00 21505.00 L 7263.00 19784.00 Z" fill="#000000" fill-rule="evenodd" node-id="117" stroke="#000000" stroke-linecap="butt" stroke-width="68.5495" target-height="5370" target-width="6409" target-x="854" target-y="17477"></path><path d="M 18437.00 13797.00 C 18437.00 13898.05 18395.91 13994.96 18322.77 14066.41 C 18249.63 14137.86 18150.43 14178.00 18047.00 14178.00 C 17943.57 14178.00 17844.37 14137.86 17771.23 14066.41 C 17698.09 13994.96 17657.00 13898.05 17657.00 13797.00 C 17657.00 13695.95 17698.09 13599.04 17771.23 13527.59 C 17844.37 13456.14 17943.57 13416.00 18047.00 13416.00 C 18150.43 13416.00 18249.63 13456.14 18322.77 13527.59 C 18395.91 13599.04 18437.00 13695.95 18437.00 13797.00 Z" fill="#ffffff" fill-rule="evenodd" node-id="119" stroke="#ffffff" stroke-linecap="butt" stroke-width="68.5495" target-height="762" target-width="780" target-x="17657" target-y="13416"></path><path d="M 18693.00 15001.00 C 18693.00 15163.37 18558.24 15295.00 18392.00 15295.00 C 18225.76 15295.00 18091.00 15163.37 18091.00 15001.00 C 18091.00 14838.63 18225.76 14707.00 18392.00 14707.00 C 18558.24 14707.00 18693.00 14838.63 18693.00 15001.00 Z" fill="#ffffff" fill-rule="evenodd" node-id="121" stroke="#ffffff" stroke-linecap="butt" stroke-width="68.5495" target-height="588" target-width="602" target-x="18091" target-y="14707"></path><path d="M 30725.00 14223.00 C 30725.00 14324.05 30683.91 14420.96 30610.77 14492.41 C 30537.63 14563.86 30438.43 14604.00 30335.00 14604.00 C 30231.57 14604.00 30132.37 14563.86 30059.23 14492.41 C 29986.09 14420.96 29945.00 14324.05 29945.00 14223.00 C 29945.00 14121.95 29986.09 14025.04 30059.23 13953.59 C 30132.37 13882.14 30231.57 13842.00 30335.00 13842.00 C 30438.43 13842.00 30537.63 13882.14 30610.77 13953.59 C 30683.91 14025.04 30725.00 14121.95 30725.00 14223.00 Z" fill="#ffffff" fill-rule="evenodd" node-id="123" stroke="#ffffff" stroke-linecap="butt" stroke-width="68.5495" target-height="762" target-width="780" target-x="29945" target-y="13842"></path><path d="M 30981.00 15427.00 C 30981.00 15589.37 30846.24 15721.00 30680.00 15721.00 C 30513.76 15721.00 30379.00 15589.37 30379.00 15427.00 C 30379.00 15264.63 30513.76 15133.00 30680.00 15133.00 C 30846.24 15133.00 30981.00 15264.63 30981.00 15427.00 Z" fill="#ffffff" fill-rule="evenodd" node-id="125" stroke="#ffffff" stroke-linecap="butt" stroke-width="68.5495" target-height="588" target-width="602" target-x="30379" target-y="15133"></path></svg>