<svg xml:space="preserve" style="enable-background:new 0 0 1024 1358;" viewBox="0 0 1024 1358" y="0px" x="0px" xmlns:xlink="http://www.w3.org/1999/xlink" xmlns="http://www.w3.org/2000/svg" id="图层_1" version="1.1">
<style type="text/css">
	.st0{fill:#D44244;}
	.st1{fill:#FCDBD3;}
	.st2{fill:#FD352C;}
	.st3{fill:#F9FAF9;}
	.st4{fill:#140506;}
</style>
<g>
	<path d="M569,237.2c-22.6,25.5-45.7,49.4-69.3,71.8c-16.2,15.4-33.4,15.8-51.8,1.4c-35.1-27.7-62.6-52.2-82.5-73.5l-0.9-9.3
		c-0.2-2.1-1.3-3.2-3.5-3.3l-66.3-2c-3.7-0.1-6.8-3-7.2-6.7c-3-28.8,23.8-53,43.7-72.5c35.5-34.7,68-61.5,97.5-80.2
		c85.9-54.5,175.4,60.5,220.8,117.5c4.6,5.9,6,13.7,4.2,23.5c-0.3,1.6-1.2,3.1-2.4,4.1c-19.3,16.1-51.9,16.1-75.4,13.7
		C570.3,221.3,568,226.4,569,237.2z M512.8,98.9c-31.3-27.3-64.5-15.5-88.5,12.1c-0.6,0.7-0.5,1.8,0.2,2.4c0.5,0.4,1.3,0.5,1.9,0.2
		c35.9-18.9,51.2-35.2,88-4.2c1,0.8,2.5,0.7,3.4-0.3c0.4-0.5,0.6-1.2,0.5-1.8C517.9,104.6,516.1,101.8,512.8,98.9z M512.8,226.8
		c4-0.1,7-9.2,6.6-20.3c-0.4-11.1-4-19.9-8.1-19.8c0,0,0,0,0,0c-4,0.1-7,9.2-6.6,20.3C505.1,218.1,508.7,227,512.8,226.8
		L512.8,226.8z M434.2,227.4c5.3,0,9.6-8.8,9.6-19.7c0,0,0,0,0,0c0-10.9-4.3-19.7-9.6-19.7c-5.3,0-9.6,8.8-9.6,19.7c0,0,0,0,0,0
		C424.6,218.6,428.9,227.4,434.2,227.4z"></path>
	<path d="M512.8,98.9c3.3,2.9,5.1,5.7,5.5,8.5c0.2,1.3-0.8,2.5-2.1,2.7c-0.7,0.1-1.3-0.1-1.8-0.5
		c-36.8-31-52.1-14.8-88,4.2c-0.9,0.4-1.9,0.1-2.3-0.8c-0.3-0.6-0.2-1.4,0.2-1.9C448.2,83.4,481.5,71.6,512.8,98.9z" class="st0"></path>
	<path d="M900.4,317.2c-11.9,71.5-7.1,155.4-9.7,220.9c-1.8,6.9-7.4,14.7-16.8,23.3c-19.6-1.1-40.5-5.4-62.5-13
		c-2.2-10.1-6.4-19.9-12.4-29.2c-22.6-35.1-82-53-82.8-103.1c-0.4-31.9,3.7-74.3,13.9-110.5c12.3-43.8,27.4-100.9,50.2-131
		c22.3-29.3,57.8-61.9,95.6-67.6c6-0.9,11.7,3.2,12.6,9.3c0.2,1.4,0.2,2.7-0.1,4.1c-6.5,29.5-42.6,52.4-53.5,79.9
		c-9.9,25.1-16.5,59.8,0.4,83.6c1.1,1.5,2.6,2.6,4.3,3.3C862.3,295.2,882.5,305.2,900.4,317.2z M742.4,320.6l5.4-40.4
		c0-0.2,0-0.4-0.2-0.6c-0.5-0.5-0.6-1.3-0.5-2.3c0.2-0.6-0.2-1.2-0.8-1.4c-0.6-0.2-1.2,0.2-1.4,0.8c-4.6,11-18.3,59,7.7,56.2
		c5.4-0.6,10.3,3.3,10.9,8.7c0.2,1.5,0,3-0.5,4.4c-3.3,9.5-4.5,19.4-3.5,29.7c0,1.3,1,2.3,2.2,2.3c1.3,0,2.3-1,2.3-2.2l5.4-35.7
		c0.3-1.9-0.4-3.9-1.8-5.2c-5.9-5.4-12.9-8.4-21.3-9.2C743.9,325.5,742.1,323.2,742.4,320.6C742.4,320.6,742.4,320.6,742.4,320.6z
		 M769.6,292.9c0.1-1.8-1.3-3.3-3.1-3.4l-0.9,0c-1.8-0.1-3.3,1.3-3.4,3.1l-1.3,22.9c-0.1,1.8,1.3,3.3,3.1,3.4l0.9,0
		c1.8,0.1,3.3-1.3,3.4-3.1L769.6,292.9z M798,298.5l-0.7,1.2c-0.6,1-0.2,2.2,0.7,2.8c0.6,0.3,1.3,0.4,1.9,0.1
		c3.2-1.5,3.6-3.1,1.2-4.8C799.9,296.9,798.8,297.1,798,298.5z M872.8,354.3c2.9,0,5.2-9,5.1-20.1c0,0,0,0,0,0
		c-0.1-11.1-2.6-20-5.5-20c-2.9,0-5.2,9-5.1,20.1C867.4,345.4,869.9,354.4,872.8,354.3z M842.6,453.5c19-4.4,29.3-29.9,23-56.9
		c-6.3-27-26.8-45.3-45.8-40.9c0,0,0,0,0,0c-19,4.4-29.3,29.9-23,56.9C803.1,439.6,823.6,457.9,842.6,453.5L842.6,453.5z
		 M756.4,427.8l0.4-30.5c0-0.6-0.5-1-1-1H755c-3.6,0-6.5,4.2-6.6,9.5l-0.2,13.2c-0.1,5.3,2.8,9.7,6.4,9.8c0,0,0,0,0,0h0.8
		C756,428.8,756.4,428.3,756.4,427.8C756.4,427.8,756.4,427.8,756.4,427.8z M778.3,441.3c2.4-0.7,2.9-5.8,1.2-11.4c0,0,0,0,0,0
		c-1.7-5.6-5-9.5-7.4-8.8c-2.4,0.7-2.9,5.8-1.2,11.4c0,0,0,0,0,0C772.6,438,776,442,778.3,441.3z M857.8,536.8l6,0.3
		c0.7,0,1.4-0.6,1.4-1.3c0,0,0,0,0,0l0.1-0.5c1.2-26.3,0.4-47.7-1.8-47.8l-0.7-0.1c-2.2-0.2-5,21-6.2,47.3c0,0,0,0.1,0,0.1l-0.1,0.5
		C856.5,536.1,857,536.8,857.8,536.8C857.8,536.8,857.8,536.8,857.8,536.8z"></path>
	
		<ellipse ry="20.1" rx="7.3" cy="206.8" cx="512" class="st1" transform="matrix(0.9993 -3.664368e-02 3.664368e-02 0.9993 -7.2324 18.9013)"></ellipse>
	
		<ellipse ry="19.7" rx="9.6" cy="207.7" cx="434.1" class="st1" transform="matrix(1 -1.745302e-03 1.745302e-03 1 -0.3618 0.758)"></ellipse>
	<path d="M365.4,236.9c19.9,21.3,47.4,45.8,82.5,73.5c18.4,14.5,35.6,14,51.8-1.4c23.6-22.4,46.7-46.4,69.3-71.8
		l44.7,34.1c-27.3,25.2-56.7,47.3-88,66.3c-18.3,11-27.1,18-44.4,16.7c-53.9-4.2-124.2-44.2-168.6-74.6L365.4,236.9z" class="st2"></path>
	<path d="M613.7,271.2c5.4,0.6,11,6.5,16.8,17.7c-34.6,32.4-72.2,60.9-112.8,85.4c-41.5,25.1-110.6-14.8-152-32.1
		c-20.8-8.7-44.1-23.7-69.9-45.1l16.8-17.6c44.5,30.4,114.8,70.3,168.6,74.6c17.4,1.4,26.1-5.6,44.4-16.7
		C557,318.6,586.4,296.5,613.7,271.2z M352.2,318.2c0.7-1.4-2.3-4.3-6.6-6.6c0,0,0,0,0,0c-4.4-2.3-8.5-3-9.2-1.6c0,0,0,0,0,0
		c-0.7,1.4,2.3,4.3,6.6,6.6l0,0C347.4,318.8,351.5,319.5,352.2,318.2C352.2,318.2,352.2,318.2,352.2,318.2z"></path>
	<path d="M746.4,325.8c8.3,0.8,15.4,3.8,21.3,9.2c1.4,1.3,2.1,3.2,1.8,5.2l-5.4,35.7c0,1.3-1.1,2.3-2.3,2.2
		c-1.3,0-2.3-1.1-2.2-2.3c-1-10.3,0.2-20.2,3.5-29.7c1.8-5.1-0.9-10.8-6.1-12.6c-1.4-0.5-2.9-0.7-4.4-0.5
		c-26,2.8-12.3-45.2-7.7-56.2c0.2-0.6,0.8-1,1.4-0.8c0.6,0.2,1,0.8,0.8,1.4c-0.1,1,0,1.8,0.5,2.3c0.1,0.2,0.2,0.4,0.2,0.6l-5.4,40.4
		C742.1,323.1,743.9,325.4,746.4,325.8C746.4,325.8,746.4,325.8,746.4,325.8z" class="st3"></path>
	<path d="M765.6,289.4l0.9,0c1.8,0.1,3.2,1.6,3.1,3.4l-1.3,22.9c-0.1,1.8-1.6,3.2-3.4,3.1l-0.9,0
		c-1.8-0.1-3.2-1.6-3.1-3.4l1.3-22.9C762.3,290.7,763.8,289.3,765.6,289.4z" class="st1"></path>
	<path d="M630.5,288.9l12.6,11c-37.1,36-78.6,66.9-124.5,92.7c-9.4,5.3-8.8,8.5,2,9.6c2.1,0.2,6.3-1.6,12.6-5.5
		c39.4-24.6,77.1-52.3,113.1-83.1c8.2,18,5.7,32.4-7.5,43.4c-53.1,45-123.1,81.7-194.4,67.3c-25.8-5.2-54.7-9.7-76.4-16.9
		c-32.9-10.9-60.9-26.4-84-46.5c-9.8-9.2-11.8-21.2-6.1-36c15.5,9.9,31.1,19.2,46.9,28.1c34.3,19.3,72.7,30.6,110.5,42.9
		c8.6,2.8,17.6,4.2,27.1,4.4c2.4,0,2.8-0.8,1.2-2.7c-4.9-5.6-9.8-8.9-14.8-10c-55.3-12-125.9-35.4-164.5-74.4
		c4-8.5,7.9-13.8,11.6-16.1c25.7,21.3,49,36.4,69.9,45.1c41.4,17.3,110.5,57.2,152,32.1C558.3,349.8,595.9,321.4,630.5,288.9z" class="st2"></path>
	<path d="M798,298.5c0.8-1.3,1.9-1.6,3.1-0.7c2.4,1.7,2,3.3-1.2,4.8c-1,0.5-2.3,0-2.7-1.1c-0.3-0.6-0.2-1.3,0.1-1.9
		L798,298.5z" class="st4"></path>
	<path d="M643.2,299.9c2.6,4.8,3.7,9.3,3.1,13.6c-36,30.8-73.7,58.5-113.1,83.1c-6.3,3.9-10.5,5.7-12.6,5.5
		c-10.7-1.1-11.4-4.3-2-9.6C564.5,366.8,606,335.9,643.2,299.9z"></path>
	<ellipse ry="8.9" rx="2.8" cy="314" cx="344.3" class="st0" transform="matrix(0.4602 -0.8878 0.8878 0.4602 -92.9774 475.16)"></ellipse>
	<path d="M284.3,313.2c38.6,39,109.2,62.4,164.5,74.4c5,1.1,9.9,4.4,14.8,10c1.6,1.8,1.2,2.7-1.2,2.7c-9.4-0.1-18.5-1.6-27.1-4.4
		c-37.8-12.3-76.2-23.6-110.5-42.9c-15.8-8.9-31.4-18.2-46.9-28.1C277.8,321.5,279.9,317.6,284.3,313.2z"></path>
	
		<ellipse ry="20" rx="5.3" cy="334.3" cx="872.6" class="st2" transform="matrix(0.9999 -1.047176e-02 1.047176e-02 0.9999 -3.4531 9.156)"></ellipse>
	<path d="M900.4,317.2l10.6,6.5l-3.5,188.2c-0.5,6.4-6.1,15.2-16.8,26.3C893.3,472.6,888.5,388.7,900.4,317.2z" class="st0"></path>
	<path d="M911.1,323.7c54.1,32.5,20.6,144.8-3.5,188.2L911.1,323.7z"></path>
	<path d="M842.6,453.5c-19,4.4-39.5-13.9-45.8-40.9c0,0,0,0,0,0c-6.3-27,4-52.5,23-56.9c19-4.4,39.5,13.9,45.8,40.9v0
		C871.8,423.6,861.5,449.1,842.6,453.5z M841.6,436.5c11.6-3.5,16.9-20.4,11.7-37.8c0,0,0,0,0,0c-5.2-17.4-18.9-28.6-30.5-25.1
		c-11.6,3.5-16.9,20.4-11.7,37.8c0,0,0,0,0,0C816.3,428.8,829.9,440,841.6,436.5z" class="st0"></path>
	<path d="M638.8,356.9c7.5,14.9,18.4,50.2,29.5,60.2c1.3,1.2,2.2,2.7,2.6,4.4c17.2,71.1,34.4,143.9,39.9,217
		c0.1,2.1,1.3,3.2,3.4,3.2h17.7c1.6,0,2.5,0.8,2.5,2.4c0.2,32.5,0.4,81.6,14.7,110.9c1.9,3.9,4.8,5.4,8.7,4.5
		c1.2-0.3,1.9-1.5,1.6-2.7c-0.1-0.4-0.3-0.8-0.6-1.1c-19.2-17.8-18.2-85.4-18.9-111.2c0-2,0.9-3,2.9-3.1l38.5-2.1
		c2-0.1,3.1,0.8,3.2,2.9c1.1,17.2,2.9,48.3,10.4,63.2c0.4,0.9,1.4,1.3,2.4,0.9c0.8-0.4,1.3-1.3,1.1-2.1c-3.7-19.8-5.8-39.7-6.5-59.8
		c-0.1-2.1,0.5-4,1.6-5.8l13.6-21.2c0.4-0.6,0.9-1,1.6-1.2c7.8-2.8,11.4-6.2,10.8-10.3l46.3-14.8c12.5,2.4,26.7,2.6,34,14.3
		c1.2,2,1.4,4.1,0.5,6.3l-18.3,46c-0.5,1.3-0.3,2.4,0.7,3.4c15.7,16.2,15.2,31.6-1.6,46.1c-1.4,1.2-2.2,2.7-2.4,4.6
		c-0.4,3.3,0.5,6.2,2.6,8.9c1.3,1.7,1.7,3.9,1.1,5.9c-3.2,10-10.1,21-20.6,33l-36.6-5.5c-6.4-10.2-15.6-11.2-27.4-3
		c-1.5,1-2.9,1-4.4-0.1c-26.1-18.7-26.5-72.7-28.5-103.5c-0.1-1.5-0.9-2.2-2.4-2c-0.5,0.1-1,0.4-1.4,0.8c-0.3,0.4-0.4,0.9-0.4,1.6
		c0.4,25.7,1.2,84,22.3,101.6c1.8,1.5,2.1,4.2,0.6,6c-0.5,0.7-1.3,1.1-2.1,1.4l-46.4,13.8c-1.9,0.5-3.7,0.3-5.3-0.8l-4.9-3
		c-2.4-1.5-3.4-0.8-3.1,1.9l20.1,215.9c-7.3,1.5-10.2,8.6-9.5,15.8c1.9,21.7,1.8,43.4-0.3,65.1c-0.2,1.8-1.2,3.5-2.8,4.4
		c-9.2,5.4-16.2,0.4-19.4-9c-6.7-19.5-12.7-39.5-18.1-60.1c-0.4-1.4-1.7-2.3-3.1-2.3c-0.8,0.1-2.7,67.1-3.7,75.7
		c-0.3,2-1.3,3.2-3.2,3.7c-11.7,3.1-18.5-3.6-19.8-15.3c-2.3-20.9-4.8-41.5-7.5-61.6c-0.3-2-2.1-3.4-4.1-3.1
		c-0.9,0.1-1.8,0.6-2.4,1.3c-1.8,2.2-2.7,5-2.6,8.5c0.4,25.3-4,49.4-13.3,72.4c-1.3,3.2-4.9,4.7-8,3.4c-0.9-0.4-1.7-0.9-2.3-1.6
		c-16.9-19.3-14.7-58.6-17.1-83.5c-0.3-2.5-1.6-3.5-4.1-3l-5.9,1.1c-2.2,0.4-3.4,1.8-3.5,4l-3.2,61.5c-0.3,4.1-3.8,7.3-7.9,7
		c-3.5-0.2-6.4-2.8-6.9-6.3c-11.3-76.4-8.2-155.6-11.1-232.7c-1.3-34.7-0.8-100.1-6-150.3l-8.3-84.1l-10.1-148.7
		c-0.1-2.1-1.3-3.1-3.4-3l-65.4,2.7c-3.4-1.6-7.3-1.9-11.7-1l-72.7-14.8c-2.8-0.6-5.5,1.2-6,4c-0.1,0.3-0.1,0.5-0.1,0.8l-8.7,168.1
		l-0.7,17.4c-0.1,2,0.8,2.5,2.5,1.5c15.8-9.7,31.3-19.6,46.7-29.8c19.1-12.7,37.9-18.9,59.3-26.3c2.3-0.8,4.8,0.5,5.6,2.8
		c0.5,1.5,0.1,3.3-1,4.4c-6.3,6.6-18.5,7.3-25.8,11.6c-15.2,8.8-30.3,17.8-45.2,27.1c-11.7,7.3-23,19.9-37.9,26.3
		c-2.9,1.2-4.4,3.4-4.6,6.5l-3.8,62c-5.4,108.3-14.5,214.3-27.2,318c-2.7,22.2-5.7,22.2-8.9,0.1c-0.9-5.8-1.1-17.1-0.7-33.8
		c0-2-0.9-3.2-2.9-3.6l-9.6-1.8c-2.1-0.4-4.1,1-4.5,3.1c0,0.1,0,0.1,0,0.2c-3.2,22.2-5.8,44.5-7.6,66.8
		c-0.9,10.2-5.1,18.4-16.7,14.3c-1.7-0.6-2.7-1.7-3-3.5c-4.7-21.4-6-42.8-3.7-64.4c0.3-2.6-0.5-5.1-2.2-7.1
		c-7.6-8.8-16.6-1.4-17.7,7.4c-2.8,22.2-6.3,43.5-10.6,63.9c-0.6,2.9-3.5,4.8-6.5,4.1c-1.2-0.3-2.3-0.9-3.1-1.9
		c-15.8-20.1-8.8-50.8-12.6-75.4c-0.5-3.2-3.5-5.4-6.8-4.9c-2.3,0.4-4.2,2.1-4.8,4.4l-18.7,72.8c-1,3.9-4.8,6.6-8.8,6.1
		c-12.6-1.4-17.7-9.7-15.3-24.7c2.2-13.6,1.3-30.6-2.6-50.9c1.1-30.2,5-68.9,11.8-116c4.9-34.2,11.9-98.8,21-193.8
		c1.1-11.3,6-23,6.9-32.2c5.3-53.7,12-99.5,20.1-137.3c11-51.4,29.2-103.4,54.6-156.1c23.1,20.1,51.1,35.6,84,46.5
		c21.7,7.2,50.6,11.7,76.4,16.9C515.7,438.6,585.7,401.9,638.8,356.9z M274.9,487.8c10.9,2,23.2-15.1,27.4-38.2
		c4.2-23.1-1.3-43.4-12.2-45.4l0,0c-10.9-2-23.2,15.1-27.4,38.2C258.5,465.5,264,485.9,274.9,487.8
		C274.9,487.8,274.9,487.8,274.9,487.8z M646.2,494.4c10.2-1.6,15.6-22.5,11.9-46.9c-3.7-24.3-15-42.8-25.2-41.3c0,0,0,0,0,0
		c-10.2,1.6-15.6,22.5-11.9,46.9C624.6,477.4,635.9,495.9,646.2,494.4C646.2,494.4,646.2,494.4,646.2,494.4z M320.2,706.2l10.7,0.6
		c0.7,0.1,1.2-0.4,1.3-1.1c0,0,0,0,0,0l0.1-1c9.1-157.2,14.2-284.9,11.4-285c0,0,0,0,0,0l-3.1-0.2c-2.7-1-12.3,125.7-21.3,282.9
		c0,0.5-0.1,1-0.1,1.5l-0.1,1C319,705.7,319.5,706.2,320.2,706.2C320.2,706.2,320.2,706.2,320.2,706.2z M581,664.7
		c2.2,42.2,4,72.6,5.4,91.2c0.2,2.4,1.7,3.7,4.3,3.7c1.7,0,2.6-0.8,2.5-2.5l-2.8-109c6-68.4-2.3-141.3-8-209.7
		c-0.4-4.8-2.8-7.6-7.2-8.2c-1.3-0.2-2.5,0.7-2.7,2c0,0.2,0,0.3,0,0.5L581,664.7z M649.5,669.7c13-0.8,22-25.8,20.2-55.9
		c0,0,0,0,0,0c-1.8-30.1-13.9-53.8-26.8-53c-13,0.8-22,25.8-20.2,55.9c0,0,0,0,0,0C624.5,646.7,636.5,670.5,649.5,669.7z
		 M266.8,667.9c13.2,1.1,25.9-21.2,28.3-49.8c0,0,0,0,0,0c2.4-28.6-6.4-52.7-19.6-53.8c0,0,0,0,0,0c-13.2-1.1-25.9,21.2-28.3,49.8
		c0,0,0,0,0,0C244.8,642.7,253.6,666.8,266.8,667.9C266.8,667.9,266.8,667.9,266.8,667.9z M261.1,884.8
		c19.7,1.4,38.1-32.8,41.1-76.2c0,0,0,0,0,0c3-43.5-10.4-79.8-30.1-81.2l0,0c-19.7-1.4-38.1,32.8-41.1,76.2c0,0,0,0,0,0
		C227.9,847.1,241.4,883.4,261.1,884.8C261.1,884.8,261.1,884.8,261.1,884.8z M657.2,900.7c19.2-0.8,33.3-37.3,31.5-81.5
		c0,0,0,0,0,0c-1.9-44.2-19-79.4-38.2-78.6c-19.2,0.8-33.3,37.3-31.5,81.5c0,0,0,0,0,0C620.9,866.4,638,901.5,657.2,900.7
		L657.2,900.7z"></path>
	<path d="M841.6,436.5c-11.6,3.5-25.3-7.7-30.5-25.1c-5.2-17.4,0-34.3,11.7-37.8c0,0,0,0,0,0
		c11.6-3.5,25.3,7.7,30.5,25.1C858.4,416.1,853.2,433,841.6,436.5C841.6,436.5,841.6,436.5,841.6,436.5z M825,388.2
		c-3.5,9.1-2.8,17.8,2.3,26.1c2.7,4.5,8.5,5.9,13,3.1c2.2-1.3,3.7-3.4,4.3-5.9l1.7-7.3c0.6-2.4-0.7-4.9-3-5.9
		c-5-2.3-8.8-5.8-11.6-10.6c-1-1.8-3.3-2.4-5.1-1.4C825.9,386.8,825.3,387.5,825,388.2z" class="st4"></path>
	<path d="M825,388.2c0.8-1.9,2.9-2.9,4.9-2.1c0.8,0.3,1.4,0.9,1.9,1.6c2.7,4.8,6.6,8.4,11.6,10.6c2.3,1,3.6,3.5,3,5.9
		l-1.7,7.3c-1.2,5.1-6.3,8.2-11.3,7c-2.5-0.6-4.6-2.1-5.9-4.3C822.3,406,821.5,397.3,825,388.2z" class="st3"></path>
	<path d="M756.4,427.8c0,0.6-0.5,1-1,1l0,0h-0.8c-3.6,0-6.5-4.4-6.4-9.7c0,0,0,0,0-0.1l0.2-13.2c0.1-5.3,3-9.6,6.6-9.5
		h0.8c0.6,0,1,0.5,1,1L756.4,427.8z" class="st1"></path>
	
		<ellipse ry="20.1" rx="42.5" cy="446.1" cx="282.5" class="st2" transform="matrix(0.1788 -0.9839 0.9839 0.1788 -206.8957 644.2335)"></ellipse>
	
		<ellipse ry="44.6" rx="18.8" cy="450.3" cx="639.5" class="st2" transform="matrix(0.9888 -0.1495 0.1495 0.9888 -60.144 100.6886)"></ellipse>
	<path d="M320.2,706.2c-0.7,0-1.2-0.6-1.1-1.2c0,0,0,0,0,0l0.1-1c9.1-157.2,18.6-284.6,21.4-284.4c0,0,0,0,0,0l3.1,0.2
		c2.8-1.3-2.2,125.1-11.2,282.4c-0.1,0.9-0.1,1.8-0.2,2.7l-0.1,1c-0.1,0.7-0.6,1.1-1.3,1.1c0,0,0,0,0,0L320.2,706.2z" class="st0"></path>
	
		<ellipse ry="10.6" rx="4.5" cy="431.1" cx="775.2" class="st1" transform="matrix(0.9563 -0.2924 0.2924 0.9563 -92.1794 245.499)"></ellipse>
	<path d="M456.9,445.5l0.8,35c0.1,2.4,2.1,4.3,4.4,4.2c1.8,0,3.3-1.2,3.9-2.8c3.7-10.1,4.6-21.9,2.5-35.5l65.4-2.7
		c2.1-0.1,3.2,0.9,3.4,3l10.1,148.7l-77.5-61.7c-1.9-1.5-4.4-1.8-6.6-0.7c-36.5,18.3-67.9,41.8-94,70.6l8.7-168.1
		c0.1-2.8,2.5-5,5.3-4.9c0.3,0,0.5,0,0.8,0.1L456.9,445.5z M452,493.3c-19,0.6-28.7-10.1-34.5-26.6c-0.8-2.1-2.3-3.3-4.6-3.4
		l-14.9-0.6c-2.2-0.1-4.1,1.7-4.2,3.9c-0.1,2,1.2,3.7,3.1,4.1l11,2.4c1.8,0.4,3.4,1.6,4.2,3.3c20.7,38.8,55.7,24.2,90.7,21.3
		c2.2-0.1,3.9-2,3.8-4.1c-0.1-1.8-1.3-3.3-3.1-3.7C492.3,486.8,465.2,492.8,452,493.3z M411,514c2.2-2-0.3-8.2-5.6-13.9
		c-5.3-5.7-11.3-8.6-13.5-6.6c-2.2,2,0.3,8.2,5.6,13.9C402.8,513,408.8,516,411,514z" class="st2"></path>
	<path d="M590.5,648c-6.3,4.2-9.4,9.8-9.5,16.7l-8.5-232.1c0-1.3,1-2.5,2.3-2.5c0.2,0,0.3,0,0.5,0
		c4.4,0.7,6.8,3.4,7.2,8.2C588.2,506.7,596.5,579.6,590.5,648z" class="st0"></path>
	<path d="M456.9,445.5c4.3-0.9,8.2-0.6,11.7,1c2.1,13.6,1.2,25.4-2.5,35.5c-0.8,2.2-3.3,3.4-5.5,2.5
		c-1.7-0.6-2.8-2.2-2.9-4L456.9,445.5z" class="st1"></path>
	<path d="M452,493.3c13.1-0.5,40.2-6.5,51.5-3.4c2.1,0.5,3.5,2.6,3,4.8c-0.4,1.7-1.9,3-3.7,3.1
		c-35,2.9-70,17.5-90.7-21.3c-0.9-1.7-2.4-2.8-4.2-3.3l-11-2.4c-2.2-0.5-3.6-2.7-3-4.9c0.4-1.9,2.2-3.2,4.1-3.1l14.9,0.6
		c2.3,0.1,3.8,1.2,4.6,3.4C423.3,483.2,433,493.9,452,493.3z" class="st1"></path>
	<path d="M857.8,536.8c-0.7,0-1.3-0.7-1.3-1.4c0,0,0,0,0,0l0.1-0.5c1.2-26.3,4-47.6,6.2-47.5c0,0,0,0,0,0l0.7,0.1
		c2.2,0.1,3,21.5,1.8,47.8l-0.1,0.5c0,0.7-0.7,1.3-1.4,1.3c0,0,0,0,0,0L857.8,536.8z" class="st2"></path>
	
		<ellipse ry="14" rx="5.4" cy="503.7" cx="401.4" class="st1" transform="matrix(0.7325 -0.6807 0.6807 0.7325 -235.524 407.9838)"></ellipse>
	<path d="M547.4,595.5l8.3,84.1c-4.9,9.2-8.9,18.1-16.4,25.5c-32.5,32.3-74,75.1-117.8,42.4
		c-21.9-16.4-41-29.8-57.2-40.4l3.8-62c0.2-3.1,1.7-5.3,4.6-6.5c14.9-6.3,26.2-19,37.9-26.3c14.9-9.3,30-18.3,45.2-27.1
		c7.3-4.2,19.5-5,25.8-11.6c1.7-1.7,1.6-4.5-0.1-6.2c-1.2-1.1-2.9-1.5-4.4-1c-21.4,7.4-40.1,13.6-59.3,26.3
		c-15.4,10.2-30.9,20.1-46.7,29.8c-1.7,1-2.6,0.6-2.5-1.5l0.7-17.4c26.1-28.8,57.5-52.3,94-70.6c2.1-1.1,4.7-0.8,6.6,0.7
		L547.4,595.5z M401.6,643.9c-4.7,4.1-5.3,11.2-1.2,15.9c0.5,0.6,1.1,1.1,1.7,1.6l36.1,27.3c1.6,1.2,3.5,1.6,5.5,1.3
		c24.3-4.3,47-13,68-26.2c7.2-4.6,7.9-9.9,2-16.1l-39.9-41.3c-1.1-1.2-2.7-1.7-4.2-1.5C441,608.9,422.3,626.1,401.6,643.9z
		 M534.6,623.5c1.5-3.1,2.2-5.9,2.1-8.2c-0.1-2.4-1.6-4.3-4.4-5.7c-3.8-2.1-8.3-3-13.4-2.9c-1.3,0-2.3,1.1-2.3,2.4
		c0,0.1,0,0.2,0,0.2c0.7,8.1,4.6,13.7,11.8,16.7C530.7,626.9,533.5,625.8,534.6,623.5z M531.6,678.6c-1.9-2.4-6.1-2.3-9.3,0.3
		c0,0,0,0,0,0c-3.2,2.6-4.3,6.6-2.4,9c1.9,2.4,6.1,2.3,9.3-0.3c0,0,0,0,0,0C532.4,685,533.5,681,531.6,678.6z M396,699.5
		c3-1.3,4.1-5.8,2.3-10.1c0,0,0,0,0,0c-1.8-4.3-5.7-6.8-8.7-5.5c0,0,0,0,0,0c-3,1.3-4.1,5.8-2.3,10.1
		C389.1,698.3,393,700.8,396,699.5C396,699.5,396,699.5,396,699.5z M492.9,705.7c-2.4-3.2-7.8-3.3-12.1-0.2c0,0,0,0,0,0
		c-4.3,3.2-5.8,8.4-3.3,11.6c2.4,3.2,7.8,3.3,12.1,0.2v0C493.8,714.1,495.3,708.9,492.9,705.7z M423.2,714.4
		c1.5-2.3,0.3-5.8-2.8-7.8c-3.1-2-6.8-1.8-8.3,0.6c0,0,0,0,0,0c-1.5,2.3-0.3,5.8,2.8,7.8C418,716.9,421.7,716.7,423.2,714.4
		C423.2,714.4,423.2,714.4,423.2,714.4z M456,727.4c0.3-3.4-3.1-6.6-7.6-7c-4.6-0.5-8.5,1.9-8.9,5.4c0,0,0,0,0,0
		c-0.3,3.4,3.1,6.6,7.6,7C451.6,733.2,455.6,730.8,456,727.4C456,727.4,456,727.4,456,727.4z" class="st1"></path>
	<path d="M811.4,548.5c22,7.6,42.8,11.9,62.5,13l-6.2,15.3l-44-6c-2.2-0.3-4.3,1.2-4.6,3.4c0,0.2-0.1,0.5,0,0.8l0.2,6.8
		c-0.1,1.1-0.6,1.6-1.4,1.7L811.4,548.5z" class="st2"></path>
	
		<ellipse ry="54.6" rx="23.5" cy="615.2" cx="646.2" class="st2" transform="matrix(0.9981 -6.104854e-02 6.104854e-02 0.9981 -36.3537 40.5945)"></ellipse>
	
		<ellipse ry="24" rx="52" cy="616.1" cx="271.1" class="st2" transform="matrix(8.367790e-02 -0.9965 0.9965 8.367790e-02 -365.4793 834.7411)"></ellipse>
	<path d="M867.7,576.7c2.2,4.6,1.7,8.5-1.5,11.6c-13.3-3.6-29.1-1.1-47-6.7l-0.2-6.8c-0.1-2.2,1.7-4.1,3.9-4.2
		c0.3,0,0.5,0,0.8,0L867.7,576.7z" class="st4"></path>
	<path d="M819.2,581.6c17.9,5.5,33.7,3.1,47,6.7c0.5,2.6,0.3,3.6-0.5,2.9L819.3,606l-1.5-22.7
		C818.6,583.2,819.1,582.7,819.2,581.6z" class="st0"></path>
	<path d="M401.6,643.9c20.7-17.7,39.4-35,68-38.9c1.6-0.2,3.1,0.3,4.2,1.5l39.9,41.3c5.9,6.1,5.3,11.5-2,16.1
		c-21,13.2-43.7,21.9-68,26.2c-1.9,0.3-3.9-0.1-5.5-1.3l-36.1-27.3c-5-3.8-5.9-10.9-2.2-15.9C400.4,645,401,644.4,401.6,643.9z
		 M433.8,645.7c-3,3-2.9,7.9,0.1,10.9c0.3,0.3,0.7,0.6,1.1,0.9c10.4,7.1,20.9,8.5,31.5,4.4c26.2-10.3,7.2-38.6-9.1-32.9
		C450.6,631.3,439.7,639.7,433.8,645.7z"></path>
	<path d="M534.6,623.5c-1.1,2.4-3.8,3.4-6.2,2.4c-7.1-3-11-8.6-11.8-16.7c-0.1-1.3,0.8-2.4,2-2.6c0.1,0,0.2,0,0.2,0
		c5.1-0.1,9.6,0.9,13.4,2.9c2.8,1.5,4.3,3.4,4.4,5.7C536.8,617.6,536.1,620.3,534.6,623.5z" class="st2"></path>
	<path d="M433.8,645.7c5.9-6,16.8-14.4,23.5-16.8c16.3-5.6,35.3,22.6,9.1,32.9c-10.5,4.1-21,2.7-31.5-4.4
		c-3.5-2.4-4.5-7.2-2.1-10.7C433.2,646.4,433.5,646,433.8,645.7z" class="st1"></path>
	<path d="M590.5,648l2.8,109c0,1.7-0.8,2.6-2.5,2.5c-2.7,0-4.1-1.3-4.3-3.7c-1.4-18.6-3.2-49-5.4-91.2
		C581.1,657.8,584.3,652.3,590.5,648z" class="st1"></path>
	
		<ellipse ry="5.6" rx="7.5" cy="683.2" cx="525.7" class="st0" transform="matrix(0.7848 -0.6198 0.6198 0.7848 -310.287 472.8519)"></ellipse>
	<path d="M555.7,679.6c5.2,50.2,4.7,115.6,6,150.3c2.9,77.1-0.2,156.3,11.1,232.7c0.7,4.1,4.5,6.9,8.6,6.2
		c3.5-0.6,6.1-3.4,6.3-6.9l3.2-61.5c0.1-2.2,1.3-3.5,3.5-4l5.9-1.1c2.5-0.5,3.9,0.5,4.1,3c2.4,24.9,0.2,64.2,17.1,83.5
		c2.3,2.6,6.2,2.8,8.7,0.5c0.7-0.6,1.3-1.4,1.6-2.3c9.3-23,13.8-47.1,13.3-72.4c-0.1-3.4,0.8-6.3,2.6-8.5c1.2-1.6,3.5-1.8,5.1-0.6
		c0.7,0.6,1.2,1.4,1.3,2.4c2.7,20.1,5.3,40.7,7.5,61.6c1.3,11.8,8.1,18.5,19.8,15.3c1.9-0.5,2.9-1.7,3.2-3.7
		c1.1-8.6,2.9-75.6,3.7-75.7c1.4-0.1,2.7,0.9,3.1,2.3c5.4,20.6,11.4,40.6,18.1,60.1c3.2,9.4,10.2,14.4,19.4,9
		c1.6-0.9,2.6-2.6,2.8-4.4c2.1-21.7,2.2-43.4,0.3-65.1c-0.7-7.2,2.2-14.4,9.5-15.8l13,232.7c0.2,3.3-1.3,5.5-4.3,6.6
		c-33,12.6-63.9,11.7-98.7,11.9l-86.1,1.7l-7.8-1.2l-4.5-44.2c-0.3-2.8-2.6-5.1-5.5-5.3l-28.2-1.9c-1.9-0.1-2.9,0.7-3,2.6l-2.8,50.5
		l-10-0.1l-3.3-48.5c-0.1-2-1.2-2.9-3.1-2.9h-25.5c-1.5,0-2.7,1.2-2.7,2.7c0,0,0,0,0,0.1l1.3,50.8c-6.1,1-11.1,0.9-15.1-0.3
		l-1.7-52.5c-0.1-1.9-1.6-3.4-3.5-3.4h-28.4c-1.8,0-2.9,0.9-3,2.8l-4.6,52.3c-5.2,1.2-9.3,0.9-12.2-0.9l-0.8-50
		c0-2.1-1.1-3.1-3.1-3.1l-27.6-0.1c-2,0-3.1,1-3.4,3c-1.4,13.1-1.9,26.2-1.5,39.3c0.2,5.6-3.5,8.9-11,9.9c-5.7,0.8-8.3-1.7-7.5-7.5
		c3.3-25.8,2.5-52.3,5.5-78.3c3.9-33.7,4.9-67.4,3-101.3c-0.4-6.7-3.4-8.5-9.2-5.5c-1.8,0.9-3,2.8-3,4.8l-7.3,182.7
		c-0.1,2.8-2.5,5.1-5.3,5l-51.7-0.6c-40.2,1.5-80.2-1.9-119.9-10.1c-2.1-0.4-3-1.7-2.9-3.8l13.5-226.4c3.9,20.3,4.8,37.2,2.6,50.9
		c-2.4,15,2.7,23.2,15.3,24.7c4.1,0.4,7.8-2.2,8.8-6.1l18.7-72.8c0.9-3.2,4.1-5.1,7.3-4.2c2.3,0.6,4,2.5,4.3,4.8
		c3.8,24.6-3.2,55.4,12.6,75.4c1.9,2.3,5.3,2.7,7.6,0.9c1-0.8,1.7-1.9,1.9-3.1c4.2-20.4,7.8-41.7,10.6-63.9
		c1.1-8.8,10.1-16.3,17.7-7.4c1.7,2,2.5,4.5,2.2,7.1c-2.2,21.6-1,43,3.7,64.4c0.4,1.7,1.4,2.9,3,3.5c11.6,4.1,15.8-4.1,16.7-14.3
		c1.9-22.3,4.4-44.6,7.6-66.8c0.3-2.1,2.3-3.6,4.4-3.3c0.1,0,0.1,0,0.2,0l9.6,1.8c2,0.4,3,1.6,2.9,3.6c-0.4,16.7-0.2,28,0.7,33.8
		c3.2,22.1,6.2,22.1,8.9-0.1c12.7-103.6,21.8-209.6,27.2-318c16.2,10.6,35.2,24,57.2,40.4c43.7,32.7,85.3-10.1,117.8-42.4
		C546.8,697.6,550.8,688.7,555.7,679.6z M487.4,853.3c-6-52.8-58.1-36-58.7,8.1c-0.3,28.6-7.3,74,25.1,90
		C494.9,971.5,490,876.1,487.4,853.3z M540.8,836l-21.3-0.5c-0.7,0-1.3,0.6-1.4,1.3l-2.2,96.9c-0.5,20.5,4.3,37.2,10.6,37.4
		c0,0,0,0,0,0l1.1,0.1c6.3,0.1,11.8-16.4,12.3-36.9l2.2-96.9C542.2,836.6,541.6,836,540.8,836z M393.4,957.9
		c5.5,0.2,10.9-26.1,12-58.8c0,0,0,0,0,0c1.1-32.6-2.5-59.2-8.1-59.4l0,0c-5.5-0.2-10.9,26.1-12,58.8c0,0,0,0,0,0
		C384.3,931.1,387.9,957.7,393.4,957.9z M405.8,1146.4l-1.4-123.4c-0.1-4.8-4-8.6-8.7-8.5c-2.5,0-4.9,1.2-6.5,3.1
		c-21.1,25.2-21,104.7-22.1,136.1c-0.1,3.7,2.8,6.7,6.5,6.8c0.1,0,0.1,0,0.2,0l175.7,1.2c1,0,1.9-0.8,2-1.8
		c2.9-43.8-0.5-86.9-10.2-129.5c-0.7-2.8-3.5-4.6-6.3-3.9c-1.1,0.2-2,0.8-2.7,1.6c-5.4,6-10.6,12.1-11,20.9
		c-1.2,32.8-2.5,65.2-3.9,97.4c-0.1,2.5-2.2,4.5-4.7,4.4c-0.6,0-1.2-0.2-1.7-0.4c-4.4-1.9-6.7-6.2-6.9-12.9
		c-1-37.5,1.5-77.4-5.9-114.1c-1-4.7-5.5-7.7-10.2-6.7c-3.1,0.6-5.6,2.9-6.5,6c-11.1,38.5-9.7,80.7-12.5,120.7
		c-0.3,3.9-3.7,6.9-7.6,6.7c-0.7,0-1.3-0.1-2-0.2c-1.9-0.3-2.9-1.4-3-3.4c-1.7-42.5-0.7-85.1-5.2-127.4c-0.2-2.1-2.1-3.7-4.3-3.5
		l-11.4,0.9c-2.8,0.2-5.1,2.4-5.3,5.3l-11.6,124c-0.2,2.3-1.5,3.5-3.7,3.7l-5.2,0.3C407.1,1150,405.9,1148.9,405.8,1146.4z
		 M277.8,1132.9c0.1-4.5-3.5-8.2-8.1-8.3c0,0,0,0,0,0l-0.8,0c-4.5-0.1-8.2,3.5-8.3,8.1l-0.7,46.9c-0.1,4.5,3.5,8.2,8.1,8.3
		c0,0,0,0,0,0l0.8,0c4.5,0.1,8.2-3.5,8.3-8.1L277.8,1132.9z M312.2,1190.2c5.7,0.2,11-14.6,11.8-33.1c0.8-18.5-3.1-33.7-8.8-34h0
		c-5.7-0.2-11,14.6-11.8,33.1C302.5,1174.7,306.5,1189.9,312.2,1190.2C312.2,1190.2,312.2,1190.2,312.2,1190.2z M726.5,1186.6
		c5.5-0.1,9.8-14.5,9.6-32.2c0,0,0,0,0,0c-0.2-17.7-4.8-32-10.3-31.9l0,0c-5.5,0.1-9.8,14.5-9.6,32.2c0,0,0,0,0,0
		C716.4,1172.3,721,1186.6,726.5,1186.6L726.5,1186.6z M677.6,1185.5c5.4-0.1,9.5-13.9,9.2-30.7c-0.4-16.9-5-30.4-10.5-30.3
		c-5.4,0.1-9.5,13.9-9.2,30.7c0,0,0,0,0,0C667.5,1172.1,672.2,1185.7,677.6,1185.5C677.6,1185.5,677.6,1185.5,677.6,1185.5z
		 M185.9,1136.1c0.2-4.6-3.4-8.6-8-8.8l-2.1-0.1c-4.6-0.2-8.6,3.4-8.8,8c0,0,0,0,0,0l-2.1,47.8c-0.2,4.6,3.4,8.6,8,8.8l2.1,0.1
		c4.6,0.2,8.6-3.4,8.8-8c0,0,0,0,0,0L185.9,1136.1z M215.4,1134.2c-2.7,10.8-2.8,21.7-0.2,32.7c0.4,1.6,0.2,3-0.5,4.4
		c-3.4,6.6-2.7,12.5,2,17.5c1.8,1.9,4.8,2,6.7,0.2c0.7-0.7,1.2-1.6,1.4-2.5c3.7-17.6,4.7-35,3.1-52.3c-0.7-8.1-4.1-9.4-10.1-3.9
		C216.6,1131.5,215.8,1132.8,215.4,1134.2z M588.8,1193.7c5.9-0.1,10.3-15.4,9.9-34.1c0,0,0,0,0,0c-0.4-18.7-5.5-33.8-11.4-33.6
		c-5.9,0.1-10.3,15.4-9.9,34.1c0,0,0,0,0,0C577.8,1178.8,582.9,1193.9,588.8,1193.7C588.8,1193.7,588.8,1193.7,588.8,1193.7z
		 M632.1,1192.2c5.9-0.3,10-14.9,9.3-32.7c-0.8-17.8-6.2-32-12.1-31.7c-5.9,0.3-10,14.9-9.3,32.7
		C620.7,1178.3,626.2,1192.5,632.1,1192.2z" class="st2"></path>
	
		<ellipse ry="8.5" rx="6" cy="691.7" cx="392.8" class="st0" transform="matrix(0.9245 -0.3811 0.3811 0.9245 -233.9506 201.8788)"></ellipse>
	
		<ellipse ry="7.3" rx="9.6" cy="711.4" cx="485.2" class="st0" transform="matrix(0.8028 -0.5962 0.5962 0.8028 -328.4843 429.5485)"></ellipse>
	<ellipse ry="6.6" rx="5" cy="710.7" cx="417.6" class="st2" transform="matrix(0.5476 -0.8368 0.8368 0.5476 -405.7678 671.04)"></ellipse>
	
		<ellipse ry="8.3" rx="6.2" cy="726.5" cx="447.7" class="st0" transform="matrix(0.1011 -0.9949 0.9949 0.1011 -320.3567 1098.5131)"></ellipse>
	<path d="M261.1,884.8c-19.7-1.4-33.1-37.7-30.1-81.2c0,0,0,0,0,0c3-43.5,21.4-77.6,41.1-76.2c0,0,0,0,0,0
		c19.7,1.4,33.1,37.7,30.1,81.2c0,0,0,0,0,0C299.2,852.1,280.7,886.2,261.1,884.8C261.1,884.8,261.1,884.8,261.1,884.8z
		 M264.3,844.7c9,0.4,17-14.8,17.9-34c0,0,0,0,0,0c0.9-19.2-5.7-35.1-14.7-35.5s-17,14.8-17.9,34c0,0,0,0,0,0
		C248.7,828.4,255.3,844.3,264.3,844.7z" class="st2"></path>
	<path d="M657.2,900.7c-19.2,0.8-36.3-34.4-38.2-78.6c0,0,0,0,0,0c-1.9-44.2,12.2-80.7,31.5-81.5c0,0,0,0,0,0
		c19.2-0.8,36.3,34.4,38.2,78.6C690.6,863.4,676.5,899.9,657.2,900.7C657.2,900.7,657.2,900.7,657.2,900.7z M653.1,852.1
		c9.8,0.1,17.8-15.7,17.9-35.3c0.1-19.5-7.7-35.4-17.5-35.5c0,0,0,0,0,0c-9.8-0.1-17.8,15.7-17.9,35.3
		C635.5,836.2,643.4,852,653.1,852.1C653.1,852.1,653.1,852.1,653.1,852.1z" class="st2"></path>
	<path d="M861.5,759.6c3.1,4.9,3.6,10.5,1.4,16.7l-38.2-5.9l0.2-16.3L861.5,759.6z" class="st2"></path>
	<path d="M824.7,770.4l38.2,5.9l-1.2,22.5l-37.6-13.5C823,781.3,823.2,776.3,824.7,770.4z"></path>
	
		<ellipse ry="16.3" rx="34.8" cy="809.9" cx="265.9" class="st1" transform="matrix(4.536296e-02 -0.999 0.999 4.536296e-02 -555.2906 1038.8201)"></ellipse>
	
		<ellipse ry="17.7" rx="35.4" cy="816.7" cx="653.3" class="st1" transform="matrix(5.236017e-03 -1 1 5.236017e-03 -166.8221 1465.7605)"></ellipse>
	<path d="M824.1,785.3l37.6,13.5c2.1,6.4,2.4,11.5,0.8,15.1c-12.4-1.1-24.3-4.2-35.5-9.4c-1-0.5-2.3,0-3.8,1.4
		L824.1,785.3z" class="st0"></path>
	<path d="M862.6,813.8l-1,29.1l-38.2-26.7l-0.1-10.4c1.5-1.4,2.7-1.9,3.8-1.4C838.3,809.6,850.1,812.7,862.6,813.8z" class="st4"></path>
	<path d="M823.4,816.2l38.2,26.7c1.4,4.6,1.1,11.8-0.9,21.6c-13-14.3-25.9-22.9-38.7-25.7L823.4,816.2z" class="st0"></path>
	<path d="M428.7,861.4c0.6-44,52.8-60.9,58.7-8.1c2.6,22.8,7.5,118.2-33.6,98.1C421.3,935.4,428.3,890,428.7,861.4z
		 M457.2,878.7l-0.1,20.3c0,0.7,0.6,1.3,1.3,1.3h0.7c5.6,0,10.1-4.5,10.1-10v-2.6c0.1-5.6-4.4-10.2-10-10.3c0,0,0,0-0.1,0h-0.7
		C457.8,877.4,457.2,878,457.2,878.7z M462.9,927.4c4.1-1,6.4-6.2,5.1-11.7c-1.3-5.4-5.8-9-9.9-8c0,0,0,0,0,0
		c-4.1,1-6.4,6.2-5.1,11.7C454.4,924.8,458.8,928.4,462.9,927.4C462.9,927.4,462.9,927.4,462.9,927.4z" class="st1"></path>
	<path d="M540.8,836c0.7,0,1.4,0.6,1.4,1.4l-2.2,96.9c-0.5,20.5-5.9,37-12.3,36.9l-1.1-0.1c-6.3-0.1-11.1-16.8-10.6-37.3
		c0,0,0,0,0-0.1l2.2-96.9c0-0.7,0.6-1.3,1.4-1.3L540.8,836z"></path>
	<path d="M860.7,864.5c2,4.3,2.4,11.3,1.2,21l-39.3-35.4l-0.7-11.3C834.7,841.7,847.7,850.2,860.7,864.5z" class="st4"></path>
	
		<ellipse ry="10" rx="59.1" cy="898.8" cx="395.4" transform="matrix(3.315521e-02 -0.9995 0.9995 3.315521e-02 -515.9995 1264.1854)"></ellipse>
	<path d="M822.7,850.1l39.3,35.4l-1,21.2L823.2,893L822.7,850.1z" class="st2"></path>
	<path d="M457.2,878.7c0-0.7,0.6-1.3,1.3-1.3h0.7c5.6,0,10.1,4.6,10,10.2c0,0,0,0,0,0.1v2.6c-0.1,5.6-4.6,10.1-10.1,10
		h-0.7c-0.7,0-1.3-0.6-1.3-1.3L457.2,878.7z" class="st2"></path>
	<path d="M823.2,893l37.8,13.7l-1.1,33.4l-38-13.9L823.2,893z"></path>
	
		<ellipse ry="10.1" rx="7.7" cy="917.5" cx="460.5" class="st2" transform="matrix(0.9711 -0.2385 0.2385 0.9711 -205.5633 136.3283)"></ellipse>
	<path d="M821.9,926.2l38,13.9l-1.1,14l-18.2-13.8c-1.3-1-2.8-1.6-4.4-1.6l-4.9-0.3c-3-2.5-6.1-3.8-9.4-3.9L821.9,926.2
		z" class="st0"></path>
	<path d="M821.8,934.5c3.3,0.1,6.4,1.4,9.4,3.9c-3.7,0.6-6.4,2.5-7.9,5.7C821.7,940.8,821.2,937.6,821.8,934.5z" class="st4"></path>
	<path d="M831.2,938.4l4.9,0.3c1.6,0.1,3.1,0.6,4.4,1.6l18.2,13.8l-1.7,26.6c-12.9-4.8-33.5-13.1-34.8-28.7l1-8
		C824.9,940.9,827.5,939,831.2,938.4z"></path>
	<path d="M822.3,952.1c1.2,15.6,21.9,23.9,34.8,28.7l1.5,1.3c1.3,1.2,1.4,2.3,0.1,3.4c-1.3,1.1-2,2.2-2.1,3.4l-27.9-8.6
		c-1.6-0.5-2.7,0-3.4,1.5c-10.8,23.2,19.4,29.2,30.6,38.5v9.1c-17.3-9.5-29.1-11.4-35.3-5.8L822.3,952.1z" class="st0"></path>
	<path d="M856.6,988.9l-0.7,31.5c-11.2-9.3-41.4-15.3-30.6-38.5c0.7-1.5,1.8-2,3.4-1.5L856.6,988.9z" class="st4"></path>
	<path d="M409.5,1149.9l5.2-0.3c2.3-0.1,3.5-1.4,3.7-3.7l11.6-124c0.3-2.8,2.5-5,5.3-5.3l11.4-0.9c2.2-0.2,4.1,1.4,4.3,3.5
		c4.5,42.3,3.5,84.9,5.2,127.4c0.1,2,1.1,3.1,3,3.4c0.6,0.1,1.3,0.2,2,0.2c3.9,0.2,7.4-2.7,7.6-6.7c2.9-40,1.4-82.2,12.5-120.7
		c1.4-4.6,6.2-7.2,10.7-5.8c3,0.9,5.3,3.4,6,6.5c7.3,36.7,4.9,76.6,5.9,114.1c0.1,6.7,2.4,10.9,6.9,12.9c2.3,1,5,0,6-2.3
		c0.2-0.5,0.4-1.1,0.4-1.7c1.4-32.1,2.7-64.6,3.9-97.4c0.3-8.8,5.6-14.9,11-20.9c1.9-2.2,5.3-2.4,7.4-0.4c0.8,0.7,1.4,1.7,1.6,2.7
		c9.7,42.6,13.1,85.8,10.2,129.5c-0.1,1-0.9,1.8-2,1.8l-175.7-1.2c-3.7,0-6.6-3-6.6-6.7c0-0.1,0-0.1,0-0.2c1-31.4,1-111,22.1-136.1
		c3.1-3.7,8.5-4.1,12.1-1.1c1.9,1.6,3.1,4,3.1,6.5l1.4,123.4C405.9,1148.9,407.1,1150,409.5,1149.9z"></path>
	<path d="M855.8,1029.5l-1.1,36.9c-8.9-9-19.8-16.3-32.9-21.7l-1.3-21C826.8,1018,838.6,1019.9,855.8,1029.5z" class="st4"></path>
	<path d="M402,1238.3l-35.6-0.3c-2.1,0-3,1-2.7,3c3.5,26.9,4.6,53.9,3.3,81.1c-0.4,8.3-4.8,12.4-13.1,12.4H199.2
		c-6.4,0-11.5-5.2-11.5-11.6c0-5.2,3.5-9.8,8.6-11.2c26.3-6.9,52-15.8,77-26.8c1.8-0.8,2.8-2.2,3-4.2l2.8-44.2l51.7,0.6
		c2.8,0.1,5.2-2.2,5.3-5l7.3-182.7c0.1-2,1.2-3.8,3-4.8c5.8-3,8.9-1.2,9.2,5.5c1.8,33.9,0.8,67.7-3,101.3c-3,25.9-2.2,52.4-5.5,78.3
		c-0.7,5.8,1.8,8.3,7.5,7.5c7.5-1,11.1-4.3,11-9.9c-0.4-13.1,0.1-26.2,1.5-39.3c0.2-2,1.3-3,3.4-3l27.6,0.1c2.1,0,3.1,1.1,3.1,3.1
		L402,1238.3z"></path>
	<path d="M821.8,1044.6c13.1,5.5,24,12.7,32.9,21.7c1,0.7,1.2,3.3,0.4,7.9l-34.6-10.7
		C819.6,1057.7,820,1051.4,821.8,1044.6z" class="st0"></path>
	<path d="M820.6,1063.5l34.6,10.7l-0.5,27.6c-14.5-0.7-25.7-6.5-33.8-17.4L820.6,1063.5z"></path>
	<path d="M820.8,1084.5c8.1,10.8,19.4,16.6,33.8,17.4c0.7,4.8,0.5,9.4-0.7,13.8c-8.6-6.3-19.4-10.1-32.4-11.6
		C819.8,1098.5,819.6,1092,820.8,1084.5z" class="st0"></path>
	<path d="M821.6,1104.1c13.1,1.4,23.9,5.3,32.4,11.6l0.1,24c-10.2-0.8-21.3-4.3-33.2-10.5L821.6,1104.1z"></path>
	<path d="M269,1124.5l0.8,0c4.5,0.1,8.1,3.8,8.1,8.3l-0.7,46.9c-0.1,4.5-3.8,8.1-8.3,8.1l-0.8,0c-4.5-0.1-8.1-3.8-8.1-8.3l0.7-46.9
		C260.7,1128.1,264.5,1124.5,269,1124.5z"></path>
	
		<ellipse ry="10.3" rx="33.6" cy="1156.6" cx="313.6" transform="matrix(4.361939e-02 -0.999 0.999 4.361939e-02 -855.6084 1419.5121)"></ellipse>
	
		<ellipse ry="32.1" rx="10" cy="1154.5" cx="726.2" class="st4" transform="matrix(0.9999 -1.047176e-02 1.047176e-02 0.9999 -12.0501 7.668)"></ellipse>
	
		<ellipse ry="30.5" rx="9.8" cy="1155" cx="677" class="st4" transform="matrix(0.9998 -2.094237e-02 2.094237e-02 0.9998 -24.0404 14.4306)"></ellipse>
	<path d="M175.8,1127.3l2.1,0.1c4.6,0.2,8.2,4.1,8,8.8l-2.1,47.8c-0.2,4.6-4.1,8.2-8.8,8l-2.1-0.1
		c-4.6-0.2-8.2-4.1-8-8.8l2.1-47.8C167.2,1130.7,171.2,1127.1,175.8,1127.3z" class="st4"></path>
	<path d="M215.4,1134.2c0.4-1.5,1.2-2.8,2.3-3.8c6-5.6,9.4-4.3,10.1,3.9c1.6,17.3,0.5,34.7-3.1,52.3
		c-0.5,2.6-3,4.2-5.6,3.7c-1-0.2-1.8-0.7-2.5-1.4c-4.7-5.1-5.4-10.9-2-17.5c0.7-1.4,0.9-2.9,0.5-4.4
		C212.6,1156,212.7,1145.1,215.4,1134.2z" class="st4"></path>
	
		<ellipse ry="33.9" rx="10.6" cy="1159.8" cx="588" transform="matrix(0.9997 -2.268739e-02 2.268739e-02 0.9997 -26.1625 13.639)"></ellipse>
	
		<ellipse ry="32.2" rx="10.7" cy="1160" cx="630.6" class="st4" transform="matrix(0.999 -4.361939e-02 4.361939e-02 0.999 -49.9986 28.6124)"></ellipse>
	<path d="M820.9,1129.1c11.9,6.3,23,9.8,33.2,10.5l-2.2,58.8l-29.7-9.6L820.9,1129.1z" class="st2"></path>
	<path d="M455.4,1240l-41.2-0.8l4.6-52.3c0.2-1.8,1.2-2.8,3-2.8h28.4c1.9,0,3.5,1.5,3.5,3.4L455.4,1240z"></path>
	<path d="M557.7,1236.5l-43.9,1.8l2.8-50.5c0.1-1.9,1.1-2.7,3-2.6l28.2,1.9c2.9,0.2,5.2,2.4,5.5,5.3L557.7,1236.5z"></path>
	<path d="M503.8,1238.2l-33.3,2.1l-1.3-50.8c0-1.5,1.1-2.7,2.6-2.7c0,0,0,0,0.1,0h25.5c2,0,3,1,3.1,2.9L503.8,1238.2z"></path>
	<path d="M822.2,1188.9l29.7,9.6l-0.8,24.7c0,2-1,2.7-2.9,2l-25.4-9.8c-2-0.8-2.9-2.2-2.7-4.3L822.2,1188.9z" class="st4"></path>
	<path d="M848.5,1269.9c-6.4-6.5-14.2-10.5-23.4-11.9c-2.2-0.3-3.8-2.3-3.7-4.5l1-25.9c0.1-3,1.5-3.9,4.2-2.7l21.2,9.5
		c2.7,1.2,4,3.3,3.9,6.3l-0.9,28.3c0,0.7-0.7,1.3-1.4,1.3C849.1,1270.3,848.8,1270.1,848.5,1269.9z"></path>
	<path d="M651.6,1236c-2.6,17.1-1.8,32.1,2.3,45.1c0.6,1.7,1.7,2.9,3.4,3.6l77.2,28.9c4.4,1.7,7.5,5.7,8,10.4
		c0.9,8.8-6.8,10.5-14.2,10.5c-53.3,0.2-105.4,0.2-156.3,0.1c-5.3,0-9.6-4.1-10-9.4c-1.8-29.8-0.7-58.9,3.5-87.3L651.6,1236z
		 M636.8,1249.9c0.5-1.9-2.7-4.4-7-5.5c0,0,0,0,0,0c-4.4-1.1-8.3-0.5-8.8,1.4c0,0,0,0,0,0c-0.5,1.9,2.7,4.4,7,5.5c0,0,0,0,0,0
		C632.3,1252.4,636.3,1251.8,636.8,1249.9C636.8,1249.9,636.8,1249.9,636.8,1249.9z"></path>
	
		<ellipse ry="8.2" rx="3.6" cy="1247.8" cx="628.9" class="st4" transform="matrix(0.2487 -0.9686 0.9686 0.2487 -736.1547 1546.5996)"></ellipse>
	<path d="M850.3,1308l-26.4-7.8c-4.2-8.1-4-17.8,0.5-29.1c0.8-2,2.2-2.5,4.1-1.6l10.8,5.5c2,1,4,1.4,6.3,1.1
		c3.4-0.3,5.2,1.5,5.6,5.5C852,1290.3,851.7,1299.1,850.3,1308z" class="st4"></path>
	<path d="M823.9,1300.2l26.4,7.8C853,1328.3,816.3,1328.7,823.9,1300.2z" class="st0"></path>
</g>
</svg>
